<svg width="96" height="96" viewBox="0 0 96 96" fill="none" xmlns="http://www.w3.org/2000/svg">
<path d="M92 27.4155V17.6885C74.9572 17.6885 58.9364 28.9806 48 41.8001C37.0636 28.9806 21.0428 17.6885 4 17.6885V27.4155C15.9922 27.4155 27.0921 34.6769 35.7174 42.7751C26.1885 36.7839 15.2683 32.5493 4 32.5493V42.2763C15.6299 42.2763 26.8286 47.7376 36.0667 54.7346C25.9641 50.2691 15.0294 47.4101 4 47.4101V57.1371C15.0939 57.1371 26.1203 60.4434 36.0544 65.4312C25.494 63.4082 14.7435 62.2709 4 62.2709V71.9979C18.9485 71.9979 33.5853 74.4114 48 78.3107C62.4147 74.4114 77.0515 71.9979 92 71.9979V62.2709C81.2565 62.2709 70.506 63.4082 59.9456 65.4312C69.8797 60.4434 80.9061 57.1371 92 57.1371V47.4101C80.9706 47.4101 70.0359 50.2691 59.9333 54.7346C69.1714 47.7376 80.3701 42.2763 92 42.2763V32.5493C80.7317 32.5493 69.8115 36.7839 60.2826 42.7751C68.9079 34.6769 80.0078 27.4155 92 27.4155Z" fill="#0E204D"/>
</svg>
