<svg width="96" height="96" viewBox="0 0 96 96" fill="none" xmlns="http://www.w3.org/2000/svg">
<path fill-rule="evenodd" clip-rule="evenodd" d="M77.9856 20H18.0144C18.0121 20.0019 18.0095 20.0042 18.0069 20.0069C18.0042 20.0095 18.0019 20.0121 18 20.0144V75.9856C18.0019 75.9879 18.0042 75.9905 18.0069 75.9931C18.0095 75.9958 18.0121 75.9981 18.0144 76H77.9856C77.9879 75.9981 77.9905 75.9958 77.9931 75.9931C77.9958 75.9905 77.9981 75.9879 78 75.9856V20.0144C77.9981 20.0121 77.9958 20.0095 77.9931 20.0069C77.9905 20.0042 77.9879 20.0019 77.9856 20ZM17.9999 19.9999C17.9998 19.9999 17.9998 19.9999 17.9997 19.9999C17.9993 20 17.999 20 17.9988 20C17.9985 20 17.9984 20 17.9984 20C17.9984 20 17.9989 20 18 20C18 20 18 19.9999 18 19.9999M18 12H78C82.4 12 86 15.6 86 20V76C86 80.4 82.4 84 78 84H18C13.6 84 10 80.4 10 76V20C10 15.6 13.6 12 18 12Z" fill="#2659D9"/>
<path d="M29.5186 61.8227L56.0351 35.3062L61.6919 40.9631L35.1754 67.4796L29.5186 61.8227Z" fill="#2659D9"/>
<path d="M65.562 31.4375V61.4375L57.562 61.4375L57.562 39.4377L35.562 39.4377L35.562 31.4377L65.562 31.4375Z" fill="#2659D9"/>
</svg>
