<svg width="96" height="96" viewBox="0 0 96 96" fill="none" xmlns="http://www.w3.org/2000/svg">
<path d="M34.6661 48.0246C34.6531 40.6619 40.6122 34.6808 47.9734 34.668C55.3361 34.6536 61.3183 40.61 61.3327 47.9741C61.3469 55.3382 55.3878 61.3179 48.0239 61.3322C40.6627 61.3463 34.6803 55.3886 34.6661 48.0246ZM27.4617 48.0389C27.4837 59.383 36.697 68.5588 48.0383 68.5366C59.3808 68.5148 68.5618 59.304 68.5397 47.9599C68.5177 36.6197 59.3032 27.4386 47.9592 27.4608C36.6178 27.4828 27.4397 36.6974 27.4617 48.0389ZM64.5093 26.6183C64.5144 29.2673 66.6682 31.4123 69.3174 31.4072C71.9676 31.4019 74.1126 29.2492 74.1087 26.6001C74.1035 23.9511 71.9496 21.8048 69.2993 21.8101C66.6489 21.8153 64.5041 23.9692 64.5093 26.6183ZM31.9005 80.5871C28.0008 80.4174 25.8831 79.7693 24.4718 79.2263C22.6029 78.5032 21.2693 77.6362 19.8657 76.243C18.4648 74.8445 17.5951 73.5148 16.8654 71.6498C16.3173 70.2383 15.6576 68.1233 15.4748 64.2237C15.2765 60.0075 15.2312 58.7427 15.2118 48.0622C15.1911 37.3844 15.23 36.1194 15.414 31.8995C15.5811 28.0025 16.2331 25.882 16.7748 24.472C17.4979 22.6006 18.3625 21.2695 19.7582 19.8661C21.1565 18.4625 22.4862 17.5954 24.3525 16.8658C25.7626 16.3148 27.8776 15.6603 31.7761 15.4751C35.9945 15.2754 37.2581 15.2328 47.936 15.212C58.6161 15.1912 59.881 15.2289 64.101 15.4142C67.9979 15.5839 70.1182 16.2294 71.5271 16.775C73.3971 17.4981 74.7307 18.3601 76.133 19.7584C77.5352 21.1569 78.4049 22.4839 79.1346 24.3542C79.6852 25.7603 80.3399 27.878 80.524 31.7752C80.7248 35.9936 80.7702 37.2586 80.7896 47.9364C80.8102 58.6169 80.7713 59.8819 80.5862 64.0993C80.4163 67.9988 79.7696 70.118 79.2254 71.5305C78.5021 73.3982 77.6377 74.7318 76.2405 76.1354C74.8435 77.5337 73.5138 78.4059 71.6463 79.1356C70.2386 79.6851 68.1211 80.3409 64.2254 80.5262C60.0069 80.7245 58.7432 80.7699 48.0616 80.7893C37.3837 80.8101 36.1203 80.7699 31.9005 80.5871ZM31.4339 8.27699C27.1778 8.47793 24.2709 9.15949 21.7306 10.155C19.1011 11.1801 16.872 12.5539 14.6546 14.7804C12.4345 17.0083 11.071 19.2412 10.0537 21.8734C9.06885 24.4201 8.40135 27.3284 8.21338 31.5872C8.02682 35.8538 7.98401 37.2145 8.00479 48.0764C8.02557 58.9371 8.07338 60.3005 8.27682 64.5683C8.48026 68.8232 9.15948 71.7288 10.1548 74.2702C11.1812 76.8999 12.5537 79.1279 14.7815 81.3466C17.0081 83.5654 19.2425 84.9276 21.8759 85.9463C24.42 86.9298 27.3294 87.5999 31.5869 87.7865C35.8533 87.9745 37.2153 88.0159 48.0745 87.9953C58.9389 87.9745 60.3011 87.9265 64.5675 87.7243C68.8236 87.5209 71.7279 86.8393 74.2707 85.8463C76.9002 84.8174 79.1293 83.4474 81.3469 81.2196C83.5643 78.9929 84.9277 76.7587 85.9451 74.1252C86.9301 71.5812 87.6001 68.6715 87.7852 64.4168C87.972 60.1475 88.0162 58.7841 87.9952 47.9235C87.9745 37.0616 87.9254 35.7008 87.7232 31.4356C87.521 27.1769 86.8393 24.2725 85.8452 21.7297C84.8176 19.1001 83.4465 16.8734 81.2199 14.6534C78.9933 12.4359 76.759 11.0698 74.1255 10.0551C71.5802 9.07012 68.6719 8.39887 64.4146 8.21481C60.148 8.02559 58.786 7.98418 47.9228 8.0048C37.0623 8.02559 35.7003 8.07215 31.4339 8.27699Z" fill="#0E204D"/>
</svg>
