<svg width="96" height="96" viewBox="0 0 96 96" fill="none" xmlns="http://www.w3.org/2000/svg">
<path fill-rule="evenodd" clip-rule="evenodd" d="M26.1477 8H70.2227C80.2454 8 88.3705 16.125 88.3705 26.1477V69.8523C88.3705 79.875 80.2454 88 70.2227 88H26.1477C16.125 88 8 79.875 8 69.8523V26.1477C8 16.125 16.125 8 26.1477 8ZM50.3295 39.0086H40.1749V72.7155H50.7549V56.0983C50.7549 51.8898 51.601 47.8226 57.1139 47.8226C62.5436 47.8226 62.6206 52.6323 62.6206 56.3699L62.6221 72.7155H73.2116V54.3622C73.2116 45.6815 71.229 39.0086 60.5061 39.0086C55.3495 39.0086 51.8914 41.6771 50.4771 44.2138H50.3295V39.0086ZM28.6672 34.2978C31.7062 34.2978 34.1738 31.8302 34.1738 28.7912C34.1738 25.7506 31.7062 23.2845 28.6672 23.2845C25.6266 23.2845 23.159 25.7506 23.159 28.7912C23.159 31.8302 25.6266 34.2978 28.6672 34.2978ZM34.1738 39.0086H23.159V72.7155H34.1738V39.0086Z" fill="#0E204D"/>
</svg>
