<svg width="320" height="214" viewBox="0 0 320 214" fill="none" xmlns="http://www.w3.org/2000/svg">
<path d="M320 34.695V0.464844C258.026 0.464844 199.769 40.2024 160 85.3152C120.231 40.2024 61.974 0.464844 0 0.464844V34.695C43.608 34.695 83.9714 60.2481 115.336 88.7463C80.6856 67.6628 40.9755 52.7609 0 52.7609V86.9911C42.2904 86.9911 83.0131 106.209 116.606 130.833C79.8695 115.118 40.1069 105.057 0 105.057V139.287C40.3416 139.287 80.4375 150.922 116.561 168.475C78.1599 161.355 39.0674 157.353 0 157.353V191.583C54.358 191.583 107.583 200.076 160 213.798C212.417 200.076 265.642 191.583 320 191.583V157.353C280.933 157.353 241.84 161.355 203.439 168.475C239.562 150.922 279.658 139.287 320 139.287V105.057C279.893 105.057 240.131 115.118 203.394 130.833C236.987 106.209 277.71 86.9911 320 86.9911V52.7609C279.024 52.7609 239.314 67.6628 204.664 88.7463C236.029 60.2481 276.392 34.695 320 34.695Z" fill="#2659D9"/>
</svg>
