<svg width="582" height="150" viewBox="0 0 582 150" fill="none" xmlns="http://www.w3.org/2000/svg">
<g clip-path="url(#clip0_1128_27)">
<path d="M205.36 76.42C204.06 80.71 202.88 84.62 201.7 88.53C201.31 89.84 200.81 91.13 200.54 92.46C200.29 93.74 199.5 94.11 198.37 94.19C182.94 95.27 167.91 98.4 153.17 102.96C143.13 106.07 133.44 110.07 124.06 114.83C123.48 115.12 122.94 115.5 122.46 116.07C148.32 109.14 174.56 106.32 201.53 107.78C200.62 111.01 199.81 114 198.93 116.97C198.23 119.32 197.41 121.63 196.72 123.98C196.44 124.94 196.02 125.32 194.95 125.34C186.74 125.48 178.51 125.34 170.34 125.99C152.08 127.45 134.33 131.39 117.04 137.56C114.35 138.52 110.76 138.47 108.03 137.55C95.37 133.25 82.59 129.52 69.3 127.82C61.91 126.88 54.48 126.16 47.05 125.66C41.49 125.28 35.89 125.43 30.31 125.28C29.7 125.26 28.68 124.91 28.55 124.49C26.83 119.08 25.24 113.63 23.5 107.81C50.5 106.29 76.77 109.17 102.81 115.96C102.35 115.66 101.91 115.32 101.42 115.07C89.98 109.16 78.03 104.57 65.64 101.11C54.7 98.05 43.58 95.9 32.3 94.64C30.49 94.44 28.67 94.33 26.85 94.21C25.68 94.13 24.84 93.81 24.47 92.49C23.04 87.39 21.5 82.32 20.02 77.24C19.98 77.09 20.04 76.91 20.07 76.43C48.12 77.92 75.13 83.84 101.01 94.83L101.22 94.37C100.19 93.61 99.17 92.83 98.11 92.11C83.71 82.34 68.13 74.98 51.62 69.59C42.25 66.53 32.72 64.01 22.99 62.36C21.67 62.14 20.95 61.59 20.56 60.22C19.11 55.08 17.52 49.98 15.86 44.45C45.66 48.79 73.54 57.68 99.46 72.53C99.54 72.39 99.62 72.25 99.71 72.1C98.84 71.32 97.98 70.53 97.1 69.77C81.2 55.97 63.23 45.63 43.61 38.17C35.37 35.03 26.86 32.62 18.49 29.81C17.8 29.58 16.95 28.94 16.74 28.3C15.11 23.2 13.61 18.07 12.08 12.95C12.02 12.74 12.04 12.51 12 12C14.11 12.49 16.08 12.93 18.04 13.42C32.73 17.1 47.05 21.87 60.85 28.12C79.25 36.45 96.29 46.93 111.27 60.58C112.27 61.49 112.83 61.47 113.78 60.6C129.59 46.2 147.65 35.33 167.17 26.8C181.48 20.55 196.33 15.95 211.49 12.31C211.97 12.19 212.48 12.21 213.2 12.14C211.98 16.29 210.53 20.2 209.74 24.24C208.92 28.38 206.64 30 202.66 31.06C187.56 35.06 173.13 40.87 159.37 48.28C147.73 54.54 136.82 61.89 126.93 70.69C126.55 71.03 126.2 71.41 125.86 71.79C125.81 71.85 125.86 71.99 125.86 72.39C151.75 57.56 179.54 48.81 209.14 44.43C208.44 46.87 207.81 49.03 207.19 51.19C206.34 54.14 205.41 57.08 204.66 60.06C204.33 61.38 203.76 62.06 202.36 62.3C192.51 63.97 182.87 66.52 173.39 69.63C156.11 75.3 139.85 83.08 124.93 93.54C124.57 93.79 124.27 94.12 124.01 94.63C150.01 83.85 177.03 77.89 205.36 76.44V76.42Z" fill="url(#paint0_linear_1128_27)"/>
<path d="M259.09 105.62V49.9801C259.69 49.9501 260.24 49.9101 260.79 49.9001C267.64 49.9001 274.48 49.9001 281.33 49.9001C285.23 49.9001 288.93 50.6201 292.24 52.8101C300.3 58.1301 300.6 69.4101 292.84 75.1201C292.58 75.3101 292.33 75.5401 291.97 75.8301C293.07 76.6201 294.12 77.2801 295.06 78.0701C299.82 82.1101 301.45 87.3001 300.1 93.2901C298.74 99.2701 294.75 103 288.99 104.73C286.94 105.35 284.73 105.66 282.59 105.69C275.17 105.8 267.75 105.74 260.34 105.73C259.95 105.73 259.56 105.65 259.09 105.6V105.62ZM269.79 96.8601C274.27 96.8601 278.55 97.0801 282.8 96.7501C284.44 96.6201 286.3 95.5701 287.52 94.3901C290.07 91.9301 290.36 88.7101 289.07 85.5201C287.8 82.38 285.14 81.0201 281.87 80.9201C278.79 80.8201 275.71 80.8901 272.63 80.8901C271.69 80.8901 270.75 80.8901 269.79 80.8901V96.8601ZM269.82 58.9301V71.9601C274.07 71.9601 278.23 72.2201 282.35 71.8801C285.84 71.5901 287.63 69.0401 287.63 65.4401C287.63 61.8301 285.86 59.3001 282.35 59.0101C278.23 58.6701 274.07 58.9301 269.82 58.9301Z" fill="#222222"/>
<path d="M424.5 85.0401V105.62H413.77V50.0501C414.23 50.0001 414.72 49.9101 415.21 49.9101C422.17 49.9101 429.13 49.8201 436.09 49.9301C442.34 50.0301 447.76 52.1301 451.46 57.4401C459.13 68.4301 452.41 83.1101 438.88 84.7501C434.99 85.2201 431.02 84.9701 427.08 85.0401C426.29 85.0501 425.51 85.0401 424.49 85.0401H424.5ZM424.58 76.0801C428.6 76.0801 432.43 76.3101 436.21 76.0201C440.48 75.6901 443.26 72.5801 443.61 68.3901C443.98 63.9301 441.75 59.9701 437.63 59.2801C433.37 58.5601 428.96 58.7501 424.57 58.5401V76.09L424.58 76.0801Z" fill="#222222"/>
<path d="M486.82 70.8501V67.5501H497.06V105.62H486.96C486.9 104.59 486.84 103.6 486.77 102.52C486.49 102.64 486.33 102.68 486.21 102.77C474.95 111.02 459.97 104.74 457.72 90.8001C456.77 84.9501 457.57 79.4301 460.91 74.4301C466.88 65.4801 479.54 64.1301 486.83 70.8501H486.82ZM467.99 86.5201C467.99 92.8001 471.86 96.9401 477.73 96.9301C483.56 96.9201 487.48 92.7101 487.47 86.4801C487.45 80.4601 483.39 76.2001 477.69 76.2101C471.93 76.2301 468 80.4001 468 86.5101L467.99 86.5201Z" fill="#222222"/>
<path d="M377.64 90.2601C379.41 98.7501 391.47 100.22 397.1 94.2101C399.04 96.1601 401 98.1201 403.11 100.24C401.57 102.2 399.29 103.7 396.71 104.83C387.47 108.89 375.92 105.99 370.51 97.9301C365.87 91.0201 365.59 83.5501 369.74 76.4101C374.16 68.8101 381.25 65.7101 389.92 66.7101C400.59 67.9401 407.8 78.0701 405.9 88.7301C405.67 90.0101 405.06 90.2001 403.93 90.1901C395.88 90.1801 387.84 90.2201 379.79 90.2501C379.12 90.2501 378.44 90.2501 377.62 90.2501L377.64 90.2601ZM377.63 82.3301H395.94C395.17 78.0201 392.21 75.4401 387.9 75.2001C382.92 74.9201 379.02 77.5901 377.64 82.3301H377.63Z" fill="#222222"/>
<path d="M350.89 67.5001H361.13C361.19 67.7701 361.29 67.9901 361.29 68.2001C361.29 75.5601 361.5 82.9201 361.22 90.2701C360.84 100.31 354.14 106.49 344.06 106.56C333.66 106.63 326.58 99.6301 326.58 89.2601C326.58 82.0801 326.58 74.9001 326.58 67.5601H337.11C337.11 69.5601 337.11 71.4901 337.11 73.4201C337.11 78.9501 337.06 84.4801 337.13 90.0201C337.2 94.83 340.33 97.4701 345.09 96.8801C348.61 96.4401 350.8 93.9201 350.85 89.9701C350.93 83.1301 350.88 76.2801 350.89 69.4401C350.89 68.8301 350.89 68.2201 350.89 67.5101V67.5001Z" fill="#222222"/>
<path d="M538.42 99.7001C540.55 97.5701 542.55 95.5701 544.6 93.5201C547.68 96.7101 551.56 98.0001 556.01 97.6701C558.46 97.4901 559.78 96.6201 559.99 95.1301C560.2 93.6401 559.21 92.3901 556.88 91.5801C554.03 90.5901 551.09 89.8401 548.26 88.7901C546.79 88.2401 545.32 87.4601 544.11 86.4601C538.76 82.0101 539.67 72.8101 545.76 68.9301C552.37 64.7201 563.43 65.8901 569.01 71.4101C569.49 71.8801 569.91 72.4201 570.26 72.8201C568.17 74.9001 566.16 76.9 564.2 78.84C562.86 78.01 561.4 76.6301 559.69 76.1701C557.56 75.5901 555.22 75.5801 553 75.7201C552.23 75.7701 551.21 76.9101 550.9 77.7701C550.46 78.9901 551.36 79.9901 552.52 80.4101C555.14 81.3601 557.82 82.1601 560.46 83.0601C561.54 83.4301 562.62 83.8001 563.64 84.3101C568.13 86.5601 570.32 90.1901 569.98 95.2501C569.66 100.13 567.09 103.43 562.65 105.29C555.42 108.32 544.74 106.17 539.18 100.61C538.9 100.33 538.67 100.01 538.41 99.7001H538.42Z" fill="#222222"/>
<path d="M509.37 93.59C512.15 96.53 515.79 97.8601 519.99 97.7101C520.89 97.6801 521.93 97.6801 522.65 97.2501C523.48 96.7501 524.49 95.8201 524.56 95.0001C524.64 94.1601 523.88 92.9401 523.12 92.4101C522.04 91.6501 520.63 91.3401 519.35 90.8801C516.67 89.9301 513.92 89.1501 511.3 88.0501C503.27 84.6901 504.32 73.8001 509.19 69.85C516.15 64.2 529.7 65.7501 534.88 72.8201C532.83 74.8701 530.79 76.9 528.67 79.02C526.69 76.71 523.88 75.36 520.52 75.35C519.45 75.35 518.28 75.4001 517.35 75.8401C516.6 76.1901 515.74 77.1201 515.67 77.8601C515.6 78.6101 516.25 79.7601 516.93 80.1801C518.16 80.9401 519.64 81.3301 521.04 81.8201C523.46 82.6701 525.97 83.2901 528.29 84.3501C532.72 86.3701 534.93 89.9401 534.73 94.8601C534.53 99.7201 532.19 103.17 527.75 105.13C520.53 108.31 509.89 106.36 504.21 100.88C503.81 100.5 503.46 100.07 503.14 99.7301C505.27 97.6401 507.28 95.65 509.38 93.59H509.37Z" fill="#222222"/>
<path d="M318.22 105.67H308.12V48.4301H318.22V105.67Z" fill="#222222"/>
</g>
<defs>
<linearGradient id="paint0_linear_1128_27" x1="12" y1="82.5" x2="213" y2="82.5" gradientUnits="userSpaceOnUse">
<stop offset="0.25529" stop-color="#234E9E"/>
<stop offset="0.498077" stop-color="#182051"/>
<stop offset="0.714617" stop-color="#234E9E"/>
</linearGradient>
<clipPath id="clip0_1128_27">
<rect width="558.27" height="126.27" fill="white" transform="translate(12 12)"/>
</clipPath>
</defs>
</svg>
