<svg width="137" height="27" viewBox="0 0 137 27" fill="none" xmlns="http://www.w3.org/2000/svg">
<path d="M129.944 12.4459C129.236 12.0703 128.57 11.7814 127.947 11.5792C127.323 11.377 126.771 11.2759 126.289 11.2759C125.978 11.2759 125.715 11.3409 125.503 11.4709C125.305 11.5864 125.205 11.7742 125.205 12.0342C125.205 12.2942 125.347 12.5036 125.63 12.6625C125.928 12.807 126.303 12.9514 126.757 13.0959C127.224 13.2259 127.713 13.3703 128.223 13.5292C128.733 13.6881 129.215 13.9048 129.668 14.1792C130.135 14.4392 130.511 14.7931 130.794 15.2409C131.078 15.6742 131.219 16.2303 131.219 16.9092C131.219 17.7036 131.007 18.3825 130.582 18.9459C130.171 19.5092 129.597 19.9353 128.86 20.2242C128.138 20.5131 127.302 20.6575 126.353 20.6575C125.39 20.6575 124.462 20.5203 123.569 20.2459C122.677 19.9714 121.876 19.5598 121.168 19.0109L122.358 16.5625C123.024 17.0248 123.711 17.3859 124.419 17.6459C125.128 17.8914 125.8 18.0142 126.438 18.0142C126.679 18.0142 126.884 17.9853 127.054 17.9275C127.238 17.8698 127.38 17.7903 127.479 17.6892C127.593 17.5736 127.649 17.4292 127.649 17.2559C127.649 16.9814 127.508 16.7648 127.224 16.6059C126.941 16.4325 126.573 16.2881 126.119 16.1725C125.666 16.0425 125.184 15.8981 124.674 15.7392C124.164 15.5803 123.683 15.3709 123.229 15.1109C122.79 14.8364 122.429 14.4825 122.145 14.0492C121.862 13.6159 121.72 13.0598 121.72 12.3809C121.72 11.572 121.926 10.8931 122.337 10.3442C122.762 9.78087 123.321 9.35476 124.015 9.06587C124.724 8.77698 125.531 8.63253 126.438 8.63253C127.274 8.63253 128.103 8.74809 128.924 8.9792C129.746 9.19587 130.511 9.52809 131.219 9.97587L129.944 12.4459Z" fill="#0E204D"/>
<path d="M118.966 12.4459C118.258 12.0703 117.592 11.7814 116.969 11.5792C116.346 11.377 115.793 11.2759 115.311 11.2759C115 11.2759 114.738 11.3409 114.525 11.4709C114.327 11.5864 114.228 11.7742 114.228 12.0342C114.228 12.2942 114.369 12.5036 114.653 12.6625C114.95 12.807 115.326 12.9514 115.779 13.0959C116.246 13.2259 116.735 13.3703 117.245 13.5292C117.755 13.6881 118.237 13.9048 118.69 14.1792C119.158 14.4392 119.533 14.7931 119.816 15.2409C120.1 15.6742 120.241 16.2303 120.241 16.9092C120.241 17.7036 120.029 18.3825 119.604 18.9459C119.193 19.5092 118.619 19.9353 117.883 20.2242C117.16 20.5131 116.324 20.6575 115.375 20.6575C114.412 20.6575 113.484 20.5203 112.591 20.2459C111.699 19.9714 110.898 19.5598 110.19 19.0109L111.38 16.5625C112.046 17.0248 112.733 17.3859 113.441 17.6459C114.15 17.8914 114.823 18.0142 115.46 18.0142C115.701 18.0142 115.906 17.9853 116.076 17.9275C116.261 17.8698 116.402 17.7903 116.501 17.6892C116.615 17.5736 116.671 17.4292 116.671 17.2559C116.671 16.9814 116.53 16.7648 116.246 16.6059C115.963 16.4325 115.595 16.2881 115.141 16.1725C114.688 16.0425 114.206 15.8981 113.696 15.7392C113.186 15.5803 112.705 15.3709 112.251 15.1109C111.812 14.8364 111.451 14.4825 111.168 14.0492C110.884 13.6159 110.743 13.0598 110.743 12.3809C110.743 11.572 110.948 10.8931 111.359 10.3442C111.784 9.78087 112.343 9.35476 113.038 9.06587C113.746 8.77698 114.553 8.63253 115.46 8.63253C116.296 8.63253 117.125 8.74809 117.946 8.9792C118.768 9.19587 119.533 9.52809 120.241 9.97587L118.966 12.4459Z" fill="#0E204D"/>
<path d="M102.783 15.5225C102.244 15.5225 101.841 15.6236 101.571 15.8259C101.316 16.0136 101.189 16.317 101.189 16.7359C101.189 17.1548 101.324 17.487 101.593 17.7325C101.862 17.9636 102.244 18.0792 102.74 18.0792C103.123 18.0792 103.47 18.0142 103.781 17.8842C104.107 17.7542 104.376 17.5736 104.589 17.3425C104.816 17.097 104.964 16.8225 105.035 16.5192L105.566 18.2309C105.255 19.0253 104.759 19.632 104.079 20.0509C103.399 20.4698 102.563 20.6792 101.571 20.6792C100.75 20.6792 100.041 20.5203 99.4465 20.2025C98.8656 19.8848 98.4194 19.4514 98.1077 18.9025C97.7961 18.3536 97.6402 17.7253 97.6402 17.0175C97.6402 15.9053 98.0156 15.0386 98.7665 14.4175C99.5315 13.7964 100.622 13.4786 102.039 13.4642H105.396V15.5225H102.783ZM105.035 13.3342C105.035 12.7709 104.851 12.3303 104.483 12.0125C104.114 11.6948 103.569 11.5359 102.846 11.5359C102.365 11.5359 101.826 11.6153 101.231 11.7742C100.636 11.9331 100.027 12.1714 99.404 12.4892L98.3627 9.93253C98.9719 9.65809 99.5598 9.42698 100.126 9.2392C100.707 9.03698 101.295 8.88531 101.89 8.7842C102.485 8.68309 103.094 8.63253 103.718 8.63253C105.319 8.63253 106.551 9.00809 107.415 9.7592C108.294 10.4959 108.74 11.5359 108.754 12.8792V20.5059H105.035V13.3342Z" fill="#0E204D"/>
<path d="M90.6344 5.31753C92.5327 5.31753 94.006 5.78698 95.0544 6.72587C96.1027 7.65031 96.6269 8.95753 96.6269 10.6475C96.6269 12.4242 96.1027 13.8109 95.0544 14.8075C94.006 15.7898 92.5327 16.2809 90.6344 16.2809H86.2781L87.9781 14.5475V20.5059H84.0894V5.31753H90.6344ZM90.4431 13.1609C91.2364 13.1609 91.8456 12.9586 92.2706 12.5542C92.7098 12.1498 92.9294 11.5503 92.9294 10.7559C92.9294 9.99031 92.7098 9.41253 92.2706 9.02253C91.8456 8.63253 91.2364 8.43753 90.4431 8.43753H86.2781L87.9781 6.7042V14.8942L86.2781 13.1609H90.4431Z" fill="#0E204D"/>
<path d="M78.4891 13.6375C78.5033 13.1609 78.4183 12.7564 78.2341 12.4242C78.0641 12.0775 77.8162 11.8103 77.4904 11.6225C77.1646 11.4348 76.7891 11.3409 76.3641 11.3409C75.8683 11.3409 75.4433 11.4781 75.0891 11.7525C74.7491 12.0125 74.48 12.3809 74.2816 12.8575C74.0975 13.3198 74.0054 13.8614 74.0054 14.4825C74.0054 15.1614 74.1187 15.7464 74.3454 16.2375C74.5721 16.7286 74.8908 17.1114 75.3016 17.3859C75.7266 17.6459 76.2154 17.7759 76.7679 17.7759C77.7879 17.7759 78.6875 17.3786 79.4666 16.5842L81.4429 18.5775C80.8621 19.2275 80.1466 19.7331 79.2966 20.0942C78.4608 20.4553 77.5046 20.6359 76.4279 20.6359C75.1812 20.6359 74.0975 20.3903 73.1766 19.8992C72.27 19.4081 71.5687 18.7148 71.0729 17.8192C70.5912 16.9236 70.3504 15.8836 70.3504 14.6992C70.3504 13.4859 70.5983 12.4314 71.0941 11.5359C71.59 10.6259 72.2912 9.92531 73.1979 9.4342C74.1046 8.92864 75.1529 8.67587 76.3429 8.67587C77.6887 8.67587 78.8008 8.96476 79.6791 9.54253C80.5716 10.1059 81.2233 10.9148 81.6341 11.9692C82.0591 13.0236 82.2291 14.2586 82.1441 15.6742H73.4741V13.6375H78.4891Z" fill="#0E204D"/>
<path d="M60.6166 15.1109C60.6166 15.7753 60.7795 16.3025 61.1053 16.6925C61.4453 17.0825 61.8987 17.2775 62.4653 17.2775C63.1453 17.2631 63.6695 17.0031 64.0378 16.4975C64.4203 15.992 64.6116 15.3564 64.6116 14.5909H65.5041C65.5041 15.9053 65.3199 17.0175 64.9516 17.9275C64.5832 18.8231 64.0591 19.502 63.3791 19.9642C62.6991 20.4264 61.8845 20.6575 60.9353 20.6575C60.1137 20.6575 59.3912 20.477 58.7678 20.1159C58.1587 19.7403 57.6841 19.2203 57.3441 18.5559C57.0041 17.8914 56.8341 17.1042 56.8341 16.1942V8.80587H60.6166V15.1109ZM64.6116 8.80587H68.3941V20.5059H64.6116V8.80587Z" fill="#0E204D"/>
<path d="M50.3907 4.4292H54.1732V20.5059H50.3907V4.4292Z" fill="#0E204D"/>
<path d="M42.1495 5.31753C43.2828 5.31753 44.2603 5.47642 45.082 5.7942C45.9037 6.11198 46.5412 6.55253 46.9945 7.11587C47.4478 7.6792 47.6745 8.35809 47.6745 9.15253C47.6745 9.94698 47.4407 10.6403 46.9732 11.2325C46.5199 11.8248 45.9037 12.2292 45.1245 12.4459C46.0595 12.6336 46.7962 13.0742 47.3345 13.7675C47.887 14.4609 48.1632 15.2986 48.1632 16.2809C48.1632 17.1475 47.9295 17.8986 47.462 18.5342C46.9945 19.1698 46.3287 19.6609 45.4645 20.0075C44.6145 20.3398 43.6016 20.5059 42.4257 20.5059H35.0732V5.31753H42.1495ZM41.937 11.3625C42.4753 11.3625 42.9003 11.2325 43.212 10.9725C43.5237 10.6981 43.6795 10.3225 43.6795 9.84587C43.6795 9.3692 43.5237 9.00087 43.212 8.74087C42.9003 8.48087 42.4753 8.35809 41.937 8.37253H38.962V11.3625H41.937ZM41.937 17.4725C42.617 17.4725 43.1553 17.3281 43.552 17.0392C43.9487 16.7359 44.147 16.3242 44.147 15.8042C44.147 15.3131 43.9487 14.9231 43.552 14.6342C43.1553 14.3453 42.617 14.2081 41.937 14.2225H38.962V17.4725H41.937Z" fill="#0E204D"/>
<path d="M28.6982 8.1868V5.52148C23.9655 5.52148 19.5165 8.61563 16.4795 12.1283C13.4425 8.61563 8.99352 5.52148 4.26074 5.52148V8.1868C7.59096 8.1868 10.6734 10.1765 13.0686 12.3955C10.4225 10.7538 7.38993 9.59349 4.26074 9.59349V12.2588C7.49034 12.2588 10.6002 13.7552 13.1656 15.6725C10.3601 14.4489 7.32359 13.6655 4.26074 13.6655V16.3308C7.34152 16.3308 10.4035 17.2368 13.1622 18.6035C10.2296 18.0492 7.24421 17.7375 4.26074 17.7375V20.4028C8.41191 20.4028 12.4766 21.0642 16.4795 22.1326C20.4824 21.0642 24.5471 20.4028 28.6982 20.4028V17.7375C25.7148 17.7375 22.7294 18.0492 19.7968 18.6035C22.5555 17.2368 25.6175 16.3308 28.6982 16.3308V13.6655C25.6354 13.6655 22.5988 14.4489 19.7934 15.6725C22.3588 13.7552 25.4686 12.2588 28.6982 12.2588V9.59349C25.5691 9.59349 22.5365 10.7538 19.8904 12.3955C22.2856 10.1765 25.368 8.1868 28.6982 8.1868Z" fill="#0E204D"/>
</svg>
