<svg width="320" height="214" viewBox="0 0 320 214" fill="none" xmlns="http://www.w3.org/2000/svg">
<path d="M307.531 109.553C305.463 116.383 303.586 122.607 301.71 128.832C301.089 130.917 300.294 132.971 299.865 135.088C299.467 137.126 298.211 137.715 296.414 137.842C271.873 139.562 247.968 144.545 224.525 151.804C208.557 156.755 193.145 163.123 178.227 170.7C177.304 171.162 176.445 171.767 175.682 172.674C216.811 161.642 258.545 157.153 301.439 159.477C299.992 164.619 298.704 169.379 297.304 174.107C296.191 177.848 294.887 181.526 293.789 185.267C293.344 186.795 292.676 187.4 290.974 187.432C277.917 187.655 264.827 187.432 251.833 188.466C222.791 190.791 194.561 197.063 167.062 206.885C162.783 208.414 157.074 208.334 152.732 206.869C132.596 200.024 112.27 194.086 91.1332 191.38C79.3797 189.883 67.5626 188.737 55.7455 187.941C46.9026 187.336 37.996 187.575 29.1213 187.336C28.1511 187.304 26.5288 186.747 26.3221 186.079C23.5865 177.466 21.0577 168.79 18.2903 159.525C61.2326 157.105 103.014 161.69 144.429 172.499C143.698 172.022 142.998 171.48 142.219 171.082C124.024 161.674 105.018 154.367 85.3121 148.859C67.9125 143.987 50.2266 140.565 32.2863 138.559C29.4076 138.24 26.5129 138.065 23.6183 137.874C21.7575 137.747 20.4215 137.237 19.833 135.136C17.5586 127.017 15.1093 118.946 12.7555 110.859C12.6919 110.62 12.7873 110.334 12.835 109.569C57.4473 111.941 100.406 121.366 141.567 138.861L141.901 138.129C140.262 136.919 138.64 135.677 136.954 134.531C114.052 118.978 89.2724 107.261 63.0139 98.6805C48.1113 93.8091 32.9543 89.7974 17.4791 87.1706C15.3797 86.8204 14.2346 85.9448 13.6143 83.7639C11.3082 75.5812 8.77932 67.4623 6.13917 58.6588C53.5348 65.5679 97.8767 79.7203 139.101 103.361C139.229 103.138 139.356 102.915 139.499 102.676C138.115 101.435 136.748 100.177 135.348 98.967C110.06 76.9981 81.4791 60.5373 50.2744 48.6614C37.169 43.6626 23.6342 39.826 10.3221 35.3526C9.22465 34.9865 7.87276 33.9676 7.53877 32.9488C4.94632 24.8298 2.56064 16.6631 0.127237 8.51235C0.0318091 8.17804 0.0636183 7.81189 0 7C3.35586 7.78006 6.48907 8.48051 9.60636 9.26057C32.9702 15.1189 55.7455 22.7126 77.6938 32.6622C106.958 45.9232 134.06 62.6068 157.885 84.337C159.475 85.7857 160.366 85.7538 161.877 84.3688C187.022 61.4447 215.746 44.1402 246.791 30.5609C269.551 20.6112 293.169 13.2882 317.28 7.4935C318.044 7.30247 318.855 7.33431 320 7.22287C318.06 13.8295 315.754 20.054 314.497 26.4855C313.193 33.0762 309.567 35.6551 303.237 37.3426C279.221 43.7104 256.27 52.9596 234.386 64.756C215.873 74.7216 198.521 86.4224 182.791 100.432C182.187 100.973 181.63 101.578 181.089 102.183C181.01 102.278 181.089 102.501 181.089 103.138C222.266 79.5293 266.465 65.5997 313.543 58.627C312.429 62.5113 311.427 65.9499 310.441 69.3886C309.089 74.0848 307.61 78.7651 306.418 83.5092C305.893 85.6105 304.986 86.6931 302.759 87.0751C287.093 89.7337 271.761 93.7932 256.684 98.7441C229.201 107.77 203.34 120.156 179.61 136.808C179.038 137.206 178.561 137.731 178.147 138.543C219.499 121.382 262.473 111.894 307.531 109.585V109.553Z" fill="url(#paint0_linear_51_847)"/>
<defs>
<linearGradient id="paint0_linear_51_847" x1="2.19765e-06" y1="119.233" x2="319.682" y2="119.233" gradientUnits="userSpaceOnUse">
<stop offset="0.25529" stop-color="#234E9E"/>
<stop offset="0.498077" stop-color="#182051"/>
<stop offset="0.714617" stop-color="#234E9E"/>
</linearGradient>
</defs>
</svg>
