<svg xmlns="http://www.w3.org/2000/svg" width="512" height="512" viewBox="0 0 512 512" data-svgdocument="" id="_OGOXo1Xm_gxi96XM6CFIT" class="fl-svgdocument" x="0" y="0" data-bbox="17.522551046591616 103.05858245353141 479.51919856313543 383.6053015008438" style="">
  <defs id="_OyN64PgTf-dwtGSh0waX4" transform="matrix(1.0310635566711426, 0, 0, 1.0310635566711426, -41.6635856628418, 158.0001678466797)" />
  <path d="M507,412.2l-6.9,10c-0.8,1.2-1.6,2.5-2.6,3.7l-3,4l-3.2,4.4c-1.1,1.5-2.4,3-3.6,4.5l-3.9,4.8&#xA;&#x9;&#x9;&#x9;c-1.3,1.6-2.8,3.2-4.2,4.8l-4.4,4.9l-4.7,4.8c0.1,0.6,0.7,0.6,2-0.2c0.9-0.5,1.7-1.1,2.5-1.7c0.5-0.4,1.1-0.8,1.7-1.3l1.9-1.7&#xA;&#x9;&#x9;&#x9;c1.3-1.3,2.9-2.7,4.6-4.5c0.9-0.9,1.8-1.8,2.8-2.8l2.9-3.3c5.1-5.8,9.9-11.8,14.3-18.1l5.1-7.5c-0.9-0.2-1.2-1.5-0.8-4.1&#xA;&#x9;&#x9;&#x9;C508.5,410.5,508.2,410.4,507,412.2z" fill="rgba(136,190,226,0.7425373134328358)" transform="matrix(0.46009165048599243, 0.13279373943805695, -0.13279373943805695, 0.46009165048599243, 170.06689453125, 159.1756134033203)" />
  <path d="M546.3,333.8l0.5-3.4l-0.8,4.1c-0.3,1.4-0.6,2.7-0.9,3.9l-1.8,7.4c-0.5,2.4-1.2,4.6-1.8,6.9l-1.7,6.4&#xA;&#x9;&#x9;&#x9;l-0.4,1.6l-0.5,1.5l-1,3l-1.9,6c-0.6,2-1.4,3.9-2.1,5.9l-2.3,6c1.1-2.1,2.1-4.1,3.1-6s2-3.7,2.8-5.4c1.7-3.4,3.2-6.2,4.5-8.3&#xA;&#x9;&#x9;&#x9;c0.9-1.6,1.7-3.2,2.4-4.8c0.8-1.8,1.7-3.7,2.5-5.8l1.3-3.2l1.2-3.5l2.5-7.5c0.4-1.9,0.6-3.9,1-6.1l1-7c0.4-2.4,0.6-4.9,0.9-7.4&#xA;&#x9;&#x9;&#x9;s0.6-5,0.9-7.4c-1.1,5-1.1,5-1.6,12l1.1-13.1l0.3-7.9c-0.6,2.2-1,4.4-1.3,6.6c-0.5,3.4-1.4,7.9-2.1,12.8c-0.1,0.6-0.2,1.3-0.3,1.9&#xA;&#x9;&#x9;&#x9;l-0.4,1.9l-0.8,3.9c-0.5,2.6-1,5.3-1.6,8l-1.8,7.8l-0.9,3.7c-0.3,1.2-0.6,2.4-0.9,3.5c2.5-11.2,5.1-27,5.8-40l-2.6,10.9l-1.5,7.4&#xA;&#x9;&#x9;&#x9;l-0.7,3.6l-0.3,1.7l-0.4,1.7l0.3-1.7L546.3,333.8z" fill="rgba(136,190,226,0.7425373134328358)" transform="matrix(0.43046000599861145, 0.20981578528881073, -0.20981578528881073, 0.43046000599861145, 176.30458068847656, 145.51011657714844)" />
  <path d="M388.6,499l-3.5,1.5c-2.3,0.9-4.5,1.9-6.4,2.7c-4,1.5-7,2.8-7.9,3.8c1.4-0.1,2.7-0.4,4-0.8&#xA;&#x9;&#x9;&#x9;c1-0.3,2.1-0.6,3.3-0.9l1.9-0.6c0.7-0.2,1.3-0.5,2-0.7l9-3.3l9.3-3.9c1.7-0.6,3.3-1.4,4.8-2.1l4.2-2.9c1.5-1,3-1.9,4.4-3.1&#xA;&#x9;&#x9;&#x9;l4.5-3.3l2.3-1.7l1.2-0.8l1.1-0.9c-1.2,0.8-2.5,1.4-3.8,2.1l-3.9,2l-3.9,2.1l-4,1.9l-5,3.3c-0.9,0.6-1.8,1.1-2.8,1.7l-2.8,1.6&#xA;&#x9;&#x9;&#x9;c-0.5,0-1.1,0.1-1.7,0.2c0.5-0.6,1.3-1.3,4.4-3.1l-0.6,0.3c-3.1,1.3-6.3,2.6-9.5,3.9c1.1-0.1,2-0.4,3-0.6l-1.7,0.9&#xA;&#x9;&#x9;&#x9;C389.8,498.5,389.2,498.8,388.6,499z" fill="rgba(136,190,226,0.7425373134328358)" transform="matrix(0.6783846616744995, 0, 0, 0.478872150182724, 32.79050827026367, 192.0001678466797)" />
  <path d="M555.4,396.8c-2.3,2.9-3.8,4.1-4.5,3.3c-0.5-0.7-0.5-2.5,0.2-6.1c0.1-1.1-1.2,0.8-3.3,4.4&#xA;&#x9;&#x9;&#x9;c-1,1.8-2.3,4.1-3.7,6.7s-3.2,5.4-5,8.4c-7.2,11.9-16.9,25.9-24,33.9c-4.7,4.2-3.5,0.4,0.5-7.1c0.5-1,1.1-1.9,1.6-3l1.7-3.4&#xA;&#x9;&#x9;&#x9;c1.2-2.4,2.5-5,4-7.6l4.1-8.6c0.7-1.5,1.4-2.9,2.1-4.5l1.9-4.6c1.4-3.7,3-7.5,4.2-11.4c0.3-0.4,0.5-0.8,0.8-1.2l1.7-4.8l0.8-2.3&#xA;&#x9;&#x9;&#x9;l0.7-2.3c-0.9,2-2,4-3.1,5.9l-3.1,5.6c-0.5,0.9-1,1.9-1.6,2.8l-1.6,2.6l-3.2,5.1c-1.5,2.9-3.1,5.6-4.8,8.3l2.3-4.5l-4.6,6.4&#xA;&#x9;&#x9;&#x9;l-2.2,3c-0.7,1-1.5,1.8-2.2,2.7c-1.4,1.7-2.8,3.3-4.1,4.8c-1.2,1.4-2.4,2.7-3.7,3.9c-1.9,1.7-4.2,3.9-6.7,6.7&#xA;&#x9;&#x9;&#x9;c-1.2,1.4-2.7,2.8-4.2,4.3s-3,3.2-4.7,4.9c-1.2,1.7-2.6,3.2-4,4.8l-4.4,5c2.8-3.3,4.6-5.5,5.8-7.2l-4.7,4.7&#xA;&#x9;&#x9;&#x9;c-1.6,1.6-3.3,3.3-5,4.9l-1.7,1.5c2.9-4.4,6.1-8.5,9.6-12.5c-4.7,4.7-9.8,10.1-15.6,16l3.8-4.1c1.4-1.5,2.9-3,4.3-4.7l4.4-5.2&#xA;&#x9;&#x9;&#x9;c-2.1,2.3-3.7,3.8-3.4,3c1-1.5,2.3-3.1,3.7-4.9c-11.1,11.1-22.7,20.5-32.2,26.4l-3.4,2.1c-1.1,0.7-2.2,1.2-3.2,1.8&#xA;&#x9;&#x9;&#x9;c-2,1.1-3.8,2-5.4,2.6c-1.2,0.6-2.5,1-3.9,1.3c-0.7,0.2-1.5,0.2-2.2-0.2l-7.3,4.9c-3.8,2.4-7.3,4.4-10.5,6.3s-6.3,3.3-9,4.6&#xA;&#x9;&#x9;&#x9;s-5.2,2.4-7.4,3.3s-4.1,1.7-5.8,2.3c-6.7,2.3-9.3,2.5-9,1.3l-3.7,1.6l-3.7,1.3l-7.5,2.8l-7.6,2.5l-3.7,1.2l-3.7,1l-7.3,1.9&#xA;&#x9;&#x9;&#x9;c-2.4,0.6-4.7,1-7,1.4s-4.4,0.9-6.5,1.2l-6,0.8l-4.6,0.5c-1.5,0.2-3,0.2-4.6,0.3c-3,0.2-6,0.4-8.9,0.5c-5.9,0-11.7,0.2-17.3-0.3&#xA;&#x9;&#x9;&#x9;c-11.1-0.6-22.2-1.9-33.1-4.1l-11.1-0.8l-5.2-0.6l-1.9-0.5c-1.6-0.4-3.2-0.8-4.7-1.2l-4.4-1.4c-2.8-0.9-5.2-1.6-7.1-2.4&#xA;&#x9;&#x9;&#x9;c-1.3-0.5-2.5-1.1-3.7-1.8c1.4-0.2,4.4,0.7,8.5,1.6c2,0.5,4.3,1.1,6.7,1.7s4.9,1,7.4,1.5l-2.7-1.3l-3.4-0.9&#xA;&#x9;&#x9;&#x9;c-6-1.3-12.1-2.4-17.5-3.7l-4.8-0.7c-1.6-0.2-3.2-0.6-4.9-1l-4.7-1c-1.5-0.3-3-0.6-4.4-1c2.3,0.1,4.7,0.5,6.9,1&#xA;&#x9;&#x9;&#x9;c1.6,0.3,3.5,0.8,5.4,1.3s4.2,0.9,6.4,1.4c2.9,0.5,5.9,0.8,8.8,1c-13.5-4.4-26.7-9.8-39.3-16.3c-1.9-0.8-3.7-1.5-5.5-2.2l0.7,0.3&#xA;&#x9;&#x9;&#x9;l3.9,1.5l-2.8-1.3c-0.9-0.5-1.9-0.9-2.8-1.5c-2.7-1.3-6.2-2.7-10.1-4.6l-6.2-3.1c-1.1-0.6-2.2-1.1-3.3-1.7l-3.4-2&#xA;&#x9;&#x9;&#x9;c-10.2-5.7-19.9-12.2-29.1-19.4c-1.2-1.5-2.5-3.1-3.9-4.7c-1.3-1.6-2.6-3.2-3.9-5l-2.1-2.5l-1.1-1.3c-0.3-0.4-0.7-0.9-1-1.3&#xA;&#x9;&#x9;&#x9;c-1.3-1.8-2.7-3.5-4.2-5.3c-0.7-0.9-1.5-1.8-2.2-2.7l-2.1-2.8c-1.4-1.9-2.9-3.8-4.4-5.7c-1.4-2-2.9-4-4.3-6l-2.2-3l-2.1-3.2&#xA;&#x9;&#x9;&#x9;l-4.1-6l-3.9-6.3l-2-3.2l-1.9-3.3l-3.9-6.6c-2.4-4.6-5-9.1-7.3-14l-1.8-3.6l-0.9-1.8c-0.3-0.6-0.5-1.2-0.8-1.9l-3.3-7.4&#xA;&#x9;&#x9;&#x9;c-0.6-1.2-1-2.5-1.5-3.8l-1.5-3.9l-1.5-3.9l-1.3-4c-0.9-2.7-1.8-5.3-2.6-8l-2.3-8.3l-0.6-2.1l-0.5-2.1l-1-4.2l-1-4.2&#xA;&#x9;&#x9;&#x9;c-0.3-1.4-0.5-2.8-0.8-4.3l-1.5-8.6l-1.1-8.7c-1.7-14.3-2-28.7-1.1-43c0.8-11.9,2.5-23.8,5.3-35.4c0.3-1.5,0.8-3.1,1.2-4.7&#xA;&#x9;&#x9;&#x9;c0.4-1.6,0.9-3.3,1.5-4.9c1.2-3.2,2.4-6.4,3.5-9.2c2.6-5.5,4.6-9.5,4.6-9.5c3.7-9.5,8-18.8,12.8-27.9c2.2-4.4,4.7-8.5,7-12.6&#xA;&#x9;&#x9;&#x9;c1.1-2.1,2.5-4,3.7-6l3.7-5.8c9.7-14.4,20.9-27.9,33.3-40.1c12.7-12.5,26.7-23.5,41.8-32.8c11.3-6.8,23.1-12.6,35.3-17.3&#xA;&#x9;&#x9;&#x9;c13.9-5.4,28.4-9.4,43.2-11.9c2.9-0.5,5.7-0.8,8.6-1.3l4.3-0.6c1.4-0.2,2.8-0.3,4.2-0.4l8.4-0.8c2.8-0.2,5.6-0.3,8.4-0.4l4.2-0.2&#xA;&#x9;&#x9;&#x9;c1.4-0.1,2.8,0,4.1,0h8.2c1.4,0,2.7,0.1,4.1,0.1l4.1,0.2l4.1,0.2l2,0.1l2,0.2c16.6,1.3,33.1,4.1,49.1,8.4l10.3,3l10,3.4&#xA;&#x9;&#x9;&#x9;c1.7,0.5,3.3,1.2,5,1.9l4.9,1.9c3.3,1.2,6.5,2.7,9.7,4.2c25.5,11.4,49,27,69.5,46l3.8,3.6l1.9,1.8c0.6,0.6,1.2,1.3,1.8,1.9&#xA;&#x9;&#x9;&#x9;c2.4,2.6,4.9,5.1,7.3,7.7l7,8c1.2,1.3,2.2,2.8,3.4,4.2l3.3,4.2c2.2,2.9,4.3,6,6.2,9.2l1.6,2.6c0.5,0.9,1,1.7,1.5,2.6l2.9,5.4&#xA;&#x9;&#x9;&#x9;c1,1.8,2,3.6,2.9,5.5l2.6,5.4c0.9,1.8,1.7,3.5,2.6,5.1s1.5,3.3,2.3,4.8l2,4.3l1,2.2l0.9,2.2l3.9,9.1c2.3,6.2,4.8,12.5,6.7,18.9&#xA;&#x9;&#x9;&#x9;l1.5,4.7c0.5,1.6,0.9,3.2,1.3,4.8l2.5,9.3l2,9.1c0.3,1.5,0.7,2.9,1,4.4l0.8,4.2l1.5,8l1,7.3l0.9,6.4c0.2,2,0.4,3.7,0.6,5.3&#xA;&#x9;&#x9;&#x9;c0.8,6.3,1.5,9.4,2,7.9c0.7-1.1,1.5-3.3,2.1-6.6c0.9-4.1,1.6-8.3,1.9-12.6c0.2-2.6,0.3-5.4,0.5-8.4s-0.1-6.2-0.1-9.6&#xA;&#x9;&#x9;&#x9;c-0.1-1.7,0-3.5-0.2-5.3l-0.5-5.5c-0.3-3.8-0.7-7.7-1.4-11.8c-2.7-18.5-7.6-36.6-14.7-53.9l-3-7.2l-3.4-7.1&#xA;&#x9;&#x9;&#x9;c-2.2-4.8-4.8-9.5-7.5-14.3c-1.3-2.4-2.7-4.7-4.2-7l-4.4-7l-4.8-6.8c-1.6-2.3-3.2-4.6-4.9-6.7c-13.9-18.5-30-35.2-48-49.7&#xA;&#x9;&#x9;&#x9;c-2.3-1.8-4.5-3.6-6.8-5.4l-7-5.1l-3.5-2.5l-3.6-2.4l-7.3-4.8c-10-6.2-20.3-11.7-31-16.6c-5.3-2.6-10.8-4.7-16.3-6.9l-2.1-0.8&#xA;&#x9;&#x9;&#x9;l-2.1-0.7l-4.2-1.5l-4.2-1.5c-1.4-0.5-2.8-1-4.2-1.4c-5.6-1.7-11.3-3.5-17.2-4.8c-2.9-0.7-5.8-1.4-8.7-2l-8.8-1.7L329,3.5&#xA;&#x9;&#x9;&#x9;l-4.5-0.6l-9-1.2c-3-0.3-6-0.5-9-0.8s-6-0.6-9.1-0.6l-9.1-0.3C287.6,0,286.8,0,286,0h-2.3l-4.6,0.1l-4.6,0.1c-1.5,0-3.1,0-4.6,0.2&#xA;&#x9;&#x9;&#x9;L260.8,1c-35.9,3-70.9,12.9-103,29.1c-3,1.6-6.1,3-9,4.9l-5.2,3l-2.6,1.6l-1.3,0.8l-1.3,0.8l-10.3,6.7l-10,7.3&#xA;&#x9;&#x9;&#x9;c-3.3,2.5-6.5,5.2-9.7,7.8c-23.5,19.8-43.8,43.2-60,69.3l-2.5,4l-2.3,4l-4.3,7.4l-6.9,12.9c-2.9,5.8-6,11.6-8.4,17.5l-2,4.4&#xA;&#x9;&#x9;&#x9;l-1,2.2c-0.3,0.7-0.6,1.5-0.9,2.2l-3.5,9c-0.7,1.7-1.2,3.4-1.8,5.1l-1.6,5l-1.7,5.1l-1.4,5.1l-1.4,5.1c-0.5,1.7-1,3.4-1.3,5.2&#xA;&#x9;&#x9;&#x9;L5.2,237c-0.4,1.7-0.7,3.5-1,5.2l-0.9,5.2l-0.9,5.3L1.8,258l-0.6,5.3l-0.3,2.6c-0.1,0.9-0.2,1.8-0.2,2.6L0,279.2l0.2,2.8l0.3,2.9&#xA;&#x9;&#x9;&#x9;l0.6,5.8l0.6,5.7c0.3,1.9,0.6,3.7,0.9,5.4c0.2,3.3,0.3,6.7,0.6,10.1l1.2,10.5l0.3,2.7c0.1,0.9,0.3,1.8,0.4,2.7l0.9,5.4l1,5.5&#xA;&#x9;&#x9;&#x9;c0.3,1.8,0.8,3.6,1.2,5.5l1.3,5.5c0.4,1.9,0.8,3.7,1.4,5.5l3.2,11.1c1.2,3.7,2.5,7.4,3.8,11.1c0.3,0.9,0.6,1.9,1,2.8l1,2.8&#xA;&#x9;&#x9;&#x9;l2.2,5.5c6.1,14.6,13.5,28.6,21.9,42c8.1,12.7,17.2,24.8,27.3,36.1l0.3,0.4c-1.9-1.4-1.8-0.7-0.5,1.2c2,3,4.3,5.8,6.7,8.5&#xA;&#x9;&#x9;&#x9;c5.6,6.2,11.5,12.1,17.7,17.7c8.5,7.5,16,13.6,23,18.8l5.1,3.8l2.5,1.8c0.8,0.6,1.7,1.1,2.5,1.7l9.5,6.4l9.4,5.8&#xA;&#x9;&#x9;&#x9;c0.8,0.5,1.6,1,2.4,1.4l2.4,1.3l4.9,2.7c1.7,0.9,3.3,1.9,5.1,2.8l5.4,2.7l5.7,2.8c1.9,0.9,4,1.8,6.1,2.7l4.9,2l2.5,1&#xA;&#x9;&#x9;&#x9;c0.8,0.3,1.7,0.6,2.5,0.9l10.1,3.5c18.2,5.8,36.9,9.8,55.8,11.8c19,2,38,2.4,57.1,1.1c3.5-0.2,6.8-0.8,9.9-1.1l4.7-0.6&#xA;&#x9;&#x9;&#x9;c1.5-0.2,3-0.3,4.5-0.6l8.3-1.4l3.9-0.7c1.3-0.2,2.5-0.5,3.7-0.8l6.9-1.5c2.2-0.5,4.3-0.9,6.3-1.4c4-1,7.6-1.9,11-2.6l9-2.4&#xA;&#x9;&#x9;&#x9;c2.7-0.7,5.3-1.3,7.6-2c4.6-1.3,8.5-2.3,12-3.3c7-2.2,13.1-3.7,21.3-7.3l3.2-1.4c1.1-0.5,2.3-1,3.4-1.6c2.4-1.2,4.9-2.6,7.7-4.1&#xA;&#x9;&#x9;&#x9;c1.4-0.8,2.9-1.5,4.3-2.5l4.6-2.9c3.2-2.1,6.8-4.3,10.5-7.1c13.9-10.1,27-21.4,39.2-33.5c13.2-13.3,25.3-27.7,36-43.1&#xA;&#x9;&#x9;&#x9;c1.3-2.1,2.6-4.3,4-6.6s2.8-4.5,4.1-6.9l3.8-7c1.2-2.3,2.5-4.5,3.6-6.7c6.4-12.6,8.8-18.2,10.8-21.8c1-1.8,1.7-3.3,2.6-5&#xA;&#x9;&#x9;&#x9;s1.8-3.7,3-6.8l-2.4,5l3.4-8.2C561,388,558.3,392.5,555.4,396.8z M467.3,470.8l-4.4,4.5C464.4,473.7,465.8,472.2,467.3,470.8&#xA;&#x9;&#x9;&#x9;L467.3,470.8z M258.5,524.4l2.8,0.4l2.8,0.3c3.7,0.3,7.2,0.6,10.3,0.7c-0.3,0.1-0.7,0.3-1,0.5c-0.8-0.1-1.5-0.2-2.3-0.3l-5.8-0.6&#xA;&#x9;&#x9;&#x9;l-2.8-0.3l-1.4-0.1l-1.4-0.2c-3.6-0.5-7.1-1-10.3-1.2c0.4-0.1,0.7-0.2,1.1-0.4c0.7,0.1,1.4,0.3,2.2,0.3L258.5,524.4z M184.7,492.4&#xA;&#x9;&#x9;&#x9;c-0.8-0.3-1.6-0.7-2.3-1C183.1,491.6,183.9,492,184.7,492.4L184.7,492.4z" fill="rgba(136,190,226,0.7425373134328358)" transform="matrix(0.36043569445610046, 0.3161769211292267, -0.3161769211292267, 0.36043569445610046, 245.4140167236328, 123.05858612060547)" />
  <path text="N  oNautica" text-anchor="middle" font-size="100" letter-spacing="3" side="left" offset="0.5" dx="0" dy="0" space="preserve" href="" font-family="Unica One" font-scale="contain" transform="matrix(0.9878847002983093, 0, 0, 0.9878847002983093, 256.7882080078125, 342.4766540527344)" x="0" y="0" fill="#083b66" data-fl-textpath="" id="_twYbjzrVMbZNuEI8eeCzQ" font-weight="400" font-style="normal" path="M-252.2 0C-126.1 0 126.09999999999997 0 252.2 0" d="M-235.19999050772634-50L-235.19999050772634 0L-242.19999050772634 0L-242.19999050772634-65L-235.19999050772634-65L-213.49999050772635-15L-213.49999050772635-65L-206.49999050772635-65L-206.49999050772635 0L-213.49999050772635 0L-235.19999050772634-50ZM-99.00001495022514-52.5L-99.00001495022514-52.5L-99.00001495022514-12.5Q-99.00001495022514-5.8 -103.25001495022514-2.15Q-107.50001495022514 1.5 -115.95001495022514 1.5Q-124.40001495022514 1.5 -128.70001495022512-2.15Q-133.00001495022514-5.8 -133.00001495022514-12.5L-133.00001495022514-12.5L-133.00001495022514-52.5Q-133.00001495022514-59.2 -128.75001495022514-62.85Q-124.50001495022514-66.5 -116.05001495022513-66.5Q-107.60001495022513-66.5 -103.30001495022513-62.85Q-99.00001495022514-59.2 -99.00001495022514-52.5ZM-106.00001495022514-12.5L-106.00001495022514-12.5L-106.00001495022514-52.5Q-106.00001495022514-60.5 -116.00001495022514-60.5Q-126.00001495022514-60.5 -126.00001495022514-52.5L-126.00001495022514-52.5L-126.00001495022514-12.5Q-126.00001495022514-4.5 -116.00001495022514-4.5Q-106.00001495022514-4.5 -106.00001495022514-12.5ZM-70.49997830069509-50L-70.49997830069509 0L-77.49997830069509 0L-77.49997830069509-65L-70.49997830069509-65L-48.79997830069509-15L-48.79997830069509-65L-41.79997830069509-65L-41.79997830069509 0L-48.79997830069509 0L-70.49997830069509-50ZM 12.199997250755846-52.5L 12.199997250755846 0L 9.199997250755846 0L 6.599997250755845-6.4Q 4.499997250755843-2.8  1.0999972507558446-0.65Q-2.300002749244154 1.5 -6.400002749244155 1.5L-6.400002749244155 1.5Q-20.800002749244154 1.5 -20.800002749244154-12.5L-20.800002749244154-12.5L-20.800002749244154-22.5Q-20.800002749244154-36.5 -6.400002749244155-36.5L-6.400002749244155-36.5L 5.199997250755846-36.5L 5.199997250755846-52.9Q 5.199997250755846-56.5  2.8999972507558454-58.5Q 0.5999972507558446-60.5 -3.9000027492441554-60.5L-3.9000027492441554-60.5Q-12.800002749244154-60.5 -12.800002749244154-52.9L-12.800002749244154-52.9L-12.800002749244154-47L-19.800002749244154-47L-19.800002749244154-52.5Q-19.800002749244154-59.2 -15.850002749244155-62.85Q-11.900002749244155-66.5 -3.9000027492441554-66.5Q 4.099997250755845-66.5  8.149997250755849-62.85Q 12.199997250755846-59.2  12.199997250755846-52.5L 12.199997250755846-52.5ZM 5.199997250755846-14.2L 5.199997250755846-30.5L-6.400002749244155-30.5Q-10.600002749244155-30.5 -12.200002749244153-28.4Q-13.800002749244154-26.3 -13.800002749244154-22.5L-13.800002749244154-22.5L-13.800002749244154-12.5Q-13.800002749244154-8.7 -12.200002749244153-6.6Q-10.600002749244155-4.5 -6.400002749244155-4.5Q-2.2000027492441525-4.5  1.3999972507558454-7.75Q 4.999997250755843-11  5.199997250755846-14.2L 5.199997250755846-14.2ZM 33.19999726588153-12.5L 33.19999726588153-12.5L 33.19999726588153-65L 40.19999726588153-65L 40.19999726588153-12.5Q 40.19999726588153-8.7  41.84999726588153-6.6Q 43.49999726588153-4.5  47.899997265881524-4.5Q 52.29999726588153-4.5  55.99999726588153-7.9Q 59.69999726588153-11.3  59.69999726588153-14.5L 59.69999726588153-14.5L 59.69999726588153-65L 66.69999726588154-65L 66.69999726588154 0L 63.69999726588153 0L 61.09999726588153-6.4Q 58.89999726588153-2.8  55.44999726588153-0.65Q 51.99999726588153 1.5  47.899997265881524 1.5L 47.899997265881524 1.5Q 33.19999726588153 1.5  33.19999726588153-12.5ZM 88.19999717512744-11.5L 88.19999717512744-65L 110.19999717512744-65L 110.19999717512744-59L 95.19999717512744-59L 95.19999717512744-11.1Q 95.19999717512744-8.3  96.64999717512744-6.4Q 98.09999717512744-4.5  100.74999717512743-4.5Q 103.39999717512744-4.5  104.79999717512743-6.35Q 106.19999717512744-8.2  106.19999717512744-11.1L 106.19999717512744-11.1L 106.19999717512744-23L 113.19999717512744-23L 113.19999717512744-11.5Q 113.19999717512744-5.2  109.84999717512744-1.85Q 106.49999717512743 1.5  100.79999717512743 1.5Q 95.09999717512744 1.5  91.64999717512744-1.85Q 88.19999717512744-5.2  88.19999717512744-11.5L 88.19999717512744-11.5ZM 137.19999711159954-65L 137.19999711159954 0L 130.19999711159954 0L 130.19999711159954-65L 137.19999711159954-65ZM 184.69999724470557-12.5L 184.69999724470557-12.5L 184.69999724470557-18L 191.69999724470557-18L 191.69999724470557-12.5Q 191.69999724470557-5.8  187.59999724470558-2.15Q 183.49999724470558 1.5  175.29999724470557 1.5Q 167.09999724470558 1.5  162.89999724470556-2.15Q 158.69999724470557-5.8  158.69999724470557-12.5L 158.69999724470557-12.5L 158.69999724470557-52.5Q 158.69999724470557-59.2  162.79999724470557-62.85Q 166.89999724470556-66.5  175.09999724470558-66.5Q 183.29999724470557-66.5  187.49999724470558-62.85Q 191.69999724470557-59.2  191.69999724470557-52.5L 191.69999724470557-52.5L 191.69999724470557-43L 184.69999724470557-43L 184.69999724470557-52.5Q 184.69999724470557-60.5  175.19999724470557-60.5Q 165.69999724470557-60.5  165.69999724470557-52.5L 165.69999724470557-52.5L 165.69999724470557-12.5Q 165.69999724470557-4.5  175.19999724470557-4.5Q 184.69999724470557-4.5  184.69999724470557-12.5ZM 243.19999725075584-52.5L 243.19999725075584 0L 240.19999725075584 0L 237.59999725075585-6.4Q 235.49999725075583-2.8  232.09999725075585-0.65Q 228.69999725075584 1.5  224.59999725075585 1.5L 224.59999725075585 1.5Q 210.19999725075584 1.5  210.19999725075584-12.5L 210.19999725075584-12.5L 210.19999725075584-22.5Q 210.19999725075584-36.5  224.59999725075585-36.5L 224.59999725075585-36.5L 236.19999725075584-36.5L 236.19999725075584-52.9Q 236.19999725075584-56.5  233.89999725075583-58.5Q 231.59999725075585-60.5  227.09999725075585-60.5L 227.09999725075585-60.5Q 218.19999725075584-60.5  218.19999725075584-52.9L 218.19999725075584-52.9L 218.19999725075584-47L 211.19999725075584-47L 211.19999725075584-52.5Q 211.19999725075584-59.2  215.14999725075583-62.85Q 219.09999725075585-66.5  227.09999725075585-66.5Q 235.09999725075585-66.5  239.14999725075586-62.85Q 243.19999725075584-59.2  243.19999725075584-52.5L 243.19999725075584-52.5ZM 236.19999725075584-14.2L 236.19999725075584-30.5L 224.59999725075585-30.5Q 220.39999725075583-30.5  218.79999725075584-28.4Q 217.19999725075584-26.3  217.19999725075584-22.5L 217.19999725075584-22.5L 217.19999725075584-12.5Q 217.19999725075584-8.7  218.79999725075584-6.6Q 220.39999725075583-4.5  224.59999725075585-4.5Q 228.79999725075584-4.5  232.39999725075583-7.75Q 235.99999725075583-11  236.19999725075584-14.2L 236.19999725075584-14.2Z" />
  <path text="A Move to Blue Economy" text-anchor="middle" font-size="100" letter-spacing="35" side="left" offset="0.5" dx="0" dy="0" space="preserve" href="" font-family="Montserrat" font-scale="contain" transform="matrix(0.14885593950748444, 0, 0, 0.14885593950748444, 256.11907958984375, 382.9222106933594)" x="0" y="0" fill="rgba(8, 59, 102, 0.7201492537313433)" font-weight="700" data-fl-textpath="" id="_5yxuS_WyM-49HrcqGVm7V" d="M-959.85 0L-966.0500000000001-15L-998.5500000000001-15L-1004.75 0L-1021.35 0L-990.1500000000001-70L-974.1500000000001-70L-942.85 0L-959.85 0ZM-993.35-27.3L-971.1500000000001-27.3L-982.25-54.1L-993.35-27.3ZM-758.35 0L-773.5500000000001 0L-773.6500000000001-42L-794.2500000000001-7.4L-801.5500000000001-7.4L-822.0500000000001-41.1L-822.0500000000001 0L-837.2500000000001 0L-837.2500000000001-70L-823.85-70L-797.6500000000001-26.5L-771.85-70L-758.5500000000001-70L-758.35 0ZM-682.2500000000001 0.8Q-690.7500000000001 0.8 -697.5000000000001-2.75Q-704.2500000000001-6.3 -708.0500000000001-12.6Q-711.85-18.9 -711.85-26.9L-711.85-26.9Q-711.85-34.9 -708.0500000000001-41.2Q-704.2500000000001-47.5 -697.5000000000001-51.05Q-690.7500000000001-54.6 -682.2500000000001-54.6L-682.2500000000001-54.6Q-673.7500000000001-54.6 -667.0500000000001-51.05Q-660.35-47.5 -656.5500000000001-41.2Q-652.7500000000001-34.9 -652.7500000000001-26.9L-652.7500000000001-26.9Q-652.7500000000001-18.9 -656.5500000000001-12.6Q-660.35-6.3 -667.0500000000001-2.75Q-673.7500000000001 0.8 -682.2500000000001 0.8L-682.2500000000001 0.8ZM-682.2500000000001-12Q-676.2500000000001-12 -672.4000000000001-16.05Q-668.5500000000001-20.1 -668.5500000000001-26.9L-668.5500000000001-26.9Q-668.5500000000001-33.7 -672.4000000000001-37.75Q-676.2500000000001-41.8 -682.2500000000001-41.8L-682.2500000000001-41.8Q-688.2500000000001-41.8 -692.1500000000001-37.75Q-696.0500000000001-33.7 -696.0500000000001-26.9L-696.0500000000001-26.9Q-696.0500000000001-20.1 -692.1500000000001-16.05Q-688.2500000000001-12 -682.2500000000001-12L-682.2500000000001-12ZM-570.45-53.8L-555.45-53.8L-578.1500000000001 0L-594.2500000000001 0L-616.85-53.8L-600.7500000000001-53.8L-585.85-17.2L-570.45-53.8ZM-462.85-26.7Q-462.85-26.4 -463.15-22.5L-463.15-22.5L-503.85-22.5Q-502.75-17.5 -498.65-14.6Q-494.55-11.7 -488.45-11.7L-488.45-11.7Q-484.25-11.7 -481-12.95Q-477.75-14.2 -474.95-16.9L-474.95-16.9L-466.65-7.9Q-474.25 0.8 -488.85 0.8L-488.85 0.8Q-497.95 0.8 -504.95-2.75Q-511.95-6.3 -515.75-12.6Q-519.55-18.9 -519.55-26.9L-519.55-26.9Q-519.55-34.8 -515.8-41.15Q-512.05-47.5 -505.5-51.05Q-498.95-54.6 -490.85-54.6L-490.85-54.6Q-482.95-54.6 -476.55-51.2Q-470.15-47.8 -466.5-41.45Q-462.85-35.1 -462.85-26.7L-462.85-26.7ZM-490.75-42.8Q-496.05-42.8 -499.65-39.8Q-503.25-36.8 -504.05-31.6L-504.05-31.6L-477.55-31.6Q-478.35-36.7 -481.95-39.75Q-485.55-42.8 -490.75-42.8L-490.75-42.8ZM-323.65-13.6L-319.45-2.6Q-321.74999999999994-0.9 -325.09999999999997-0.05Q-328.45 0.8 -332.15 0.8L-332.15 0.8Q-341.74999999999994 0.8 -346.99999999999994-4.1Q-352.24999999999994-9 -352.24999999999994-18.5L-352.24999999999994-18.5L-352.24999999999994-40.6L-360.54999999999995-40.6L-360.54999999999995-52.6L-352.24999999999994-52.6L-352.24999999999994-65.7L-336.65-65.7L-336.65-52.6L-323.24999999999994-52.6L-323.24999999999994-40.6L-336.65-40.6L-336.65-18.7Q-336.65-15.3 -334.9-13.45Q-333.15-11.6 -329.95-11.6L-329.95-11.6Q-326.24999999999994-11.6 -323.65-13.6L-323.65-13.6ZM-251.74999999999994 0.8Q-260.24999999999994 0.8 -266.99999999999994-2.75Q-273.74999999999994-6.3 -277.54999999999995-12.6Q-281.34999999999997-18.9 -281.34999999999997-26.9L-281.34999999999997-26.9Q-281.34999999999997-34.9 -277.54999999999995-41.2Q-273.74999999999994-47.5 -266.99999999999994-51.05Q-260.24999999999994-54.6 -251.74999999999994-54.6L-251.74999999999994-54.6Q-243.24999999999994-54.6 -236.54999999999995-51.05Q-229.84999999999997-47.5 -226.04999999999995-41.2Q-222.24999999999994-34.9 -222.24999999999994-26.9L-222.24999999999994-26.9Q-222.24999999999994-18.9 -226.04999999999995-12.6Q-229.84999999999997-6.3 -236.54999999999995-2.75Q-243.24999999999994 0.8 -251.74999999999994 0.8L-251.74999999999994 0.8ZM-251.74999999999994-12Q-245.74999999999994-12 -241.89999999999995-16.05Q-238.04999999999995-20.1 -238.04999999999995-26.9L-238.04999999999995-26.9Q-238.04999999999995-33.7 -241.89999999999995-37.75Q-245.74999999999994-41.8 -251.74999999999994-41.8L-251.74999999999994-41.8Q-257.74999999999994-41.8 -261.65-37.75Q-265.54999999999995-33.7 -265.54999999999995-26.9L-265.54999999999995-26.9Q-265.54999999999995-20.1 -261.65-16.05Q-257.74999999999994-12 -251.74999999999994-12L-251.74999999999994-12ZM-61.049999999999955-36.4Q-55.049999999999955-34.5 -51.64999999999996-30.05Q-48.24999999999996-25.6 -48.24999999999996-19.1L-48.24999999999996-19.1Q-48.24999999999996-9.9 -55.39999999999996-4.95Q-62.549999999999955 0 -76.24999999999996 0L-76.24999999999996 0L-112.44999999999996 0L-112.44999999999996-70L-78.24999999999996-70Q-65.44999999999996-70 -58.59999999999996-65.1Q-51.74999999999996-60.2 -51.74999999999996-51.8L-51.74999999999996-51.8Q-51.74999999999996-46.7 -54.19999999999996-42.7Q-56.64999999999996-38.7 -61.049999999999955-36.4L-61.049999999999955-36.4ZM-80.24999999999996-57.8L-96.34999999999997-57.8L-96.34999999999997-41.3L-80.24999999999996-41.3Q-74.24999999999996-41.3 -71.14999999999995-43.4Q-68.04999999999995-45.5 -68.04999999999995-49.6L-68.04999999999995-49.6Q-68.04999999999995-53.7 -71.14999999999995-55.75Q-74.24999999999996-57.8 -80.24999999999996-57.8L-80.24999999999996-57.8ZM-77.44999999999996-12.2Q-71.04999999999995-12.2 -67.79999999999995-14.3Q-64.54999999999995-16.4 -64.54999999999995-20.8L-64.54999999999995-20.8Q-64.54999999999995-29.5 -77.44999999999996-29.5L-77.44999999999996-29.5L-96.34999999999997-29.5L-96.34999999999997-12.2L-77.44999999999996-12.2ZM-2.049999999999957 0L-2.049999999999957-74.2L 13.550000000000043-74.2L 13.550000000000043 0L-2.049999999999957 0ZM 101.65000000000003-53.8L 117.25000000000004-53.8L 117.25000000000004 0L 102.45000000000005 0L 102.45000000000005-6.4Q 99.35000000000005-2.9  95.05000000000004-1.05Q 90.75000000000004 0.8  85.75000000000004 0.8L 85.75000000000004 0.8Q 75.15000000000005 0.8  68.95000000000005-5.3Q 62.75000000000004-11.4  62.75000000000004-23.4L 62.75000000000004-23.4L 62.75000000000004-53.8L 78.35000000000005-53.8L 78.35000000000005-25.7Q 78.35000000000005-12.7  89.25000000000004-12.7L 89.25000000000004-12.7Q 94.85000000000005-12.7  98.25000000000004-16.35Q 101.65000000000003-20  101.65000000000003-27.2L 101.65000000000003-27.2L 101.65000000000003-53.8ZM 219.45000000000005-26.7Q 219.45000000000005-26.4  219.15000000000003-22.5L 219.15000000000003-22.5L 178.45000000000005-22.5Q 179.55000000000004-17.5  183.65000000000003-14.6Q 187.75000000000003-11.7  193.85000000000002-11.7L 193.85000000000002-11.7Q 198.05000000000004-11.7  201.30000000000004-12.95Q 204.55000000000004-14.2  207.35000000000002-16.9L 207.35000000000002-16.9L 215.65000000000003-7.9Q 208.05000000000004 0.8  193.45000000000005 0.8L 193.45000000000005 0.8Q 184.35000000000005 0.8  177.35000000000005-2.75Q 170.35000000000005-6.3  166.55000000000004-12.6Q 162.75000000000003-18.9  162.75000000000003-26.9L 162.75000000000003-26.9Q 162.75000000000003-34.8  166.50000000000003-41.15Q 170.25000000000003-47.5  176.80000000000004-51.05Q 183.35000000000005-54.6  191.45000000000005-54.6L 191.45000000000005-54.6Q 199.35000000000002-54.6  205.75000000000006-51.2Q 212.15000000000003-47.8  215.80000000000004-41.45Q 219.45000000000005-35.1  219.45000000000005-26.7L 219.45000000000005-26.7ZM 191.55000000000004-42.8Q 186.25000000000003-42.8  182.65000000000003-39.8Q 179.05000000000004-36.8  178.25000000000003-31.6L 178.25000000000003-31.6L 204.75000000000006-31.6Q 203.95000000000005-36.7  200.35000000000002-39.75Q 196.75000000000006-42.8  191.55000000000004-42.8L 191.55000000000004-42.8ZM 345.35-13L 383.45000000000005-13L 383.45000000000005 0L 329.25000000000006 0L 329.25000000000006-70L 382.15000000000003-70L 382.15000000000003-57L 345.35-57L 345.35-41.8L 377.85-41.8L 377.85-29.2L 345.35-29.2L 345.35-13ZM 455.85 0.8Q 447.25000000000006 0.8  440.40000000000003-2.75Q 433.55-6.3  429.70000000000005-12.6Q 425.85-18.9  425.85-26.9L 425.85-26.9Q 425.85-34.9  429.70000000000005-41.2Q 433.55-47.5  440.40000000000003-51.05Q 447.25000000000006-54.6  455.85-54.6L 455.85-54.6Q 464.35-54.6  470.70000000000005-51.05Q 477.05-47.5  479.95000000000005-40.9L 479.95000000000005-40.9L 467.85-34.4Q 463.65000000000003-41.8  455.75000000000006-41.8L 455.75000000000006-41.8Q 449.65000000000003-41.8  445.65000000000003-37.8Q 441.65000000000003-33.8  441.65000000000003-26.9L 441.65000000000003-26.9Q 441.65000000000003-20  445.65000000000003-16Q 449.65000000000003-12  455.75000000000006-12L 455.75000000000006-12Q 463.75000000000006-12  467.85-19.4L 467.85-19.4L 479.95000000000005-12.8Q 477.05-6.4  470.70000000000005-2.8Q 464.35 0.8  455.85 0.8L 455.85 0.8ZM 548.85 0.8Q 540.35 0.8  533.6-2.75Q 526.85-6.3  523.0500000000001-12.6Q 519.2500000000001-18.9  519.2500000000001-26.9L 519.2500000000001-26.9Q 519.2500000000001-34.9  523.0500000000001-41.2Q 526.85-47.5  533.6-51.05Q 540.35-54.6  548.85-54.6L 548.85-54.6Q 557.35-54.6  564.0500000000001-51.05Q 570.7500000000001-47.5  574.5500000000001-41.2Q 578.35-34.9  578.35-26.9L 578.35-26.9Q 578.35-18.9  574.5500000000001-12.6Q 570.7500000000001-6.3  564.0500000000001-2.75Q 557.35 0.8  548.85 0.8L 548.85 0.8ZM 548.85-12Q 554.85-12  558.7-16.05Q 562.5500000000001-20.1  562.5500000000001-26.9L 562.5500000000001-26.9Q 562.5500000000001-33.7  558.7-37.75Q 554.85-41.8  548.85-41.8L 548.85-41.8Q 542.85-41.8  538.95-37.75Q 535.0500000000001-33.7  535.0500000000001-26.9L 535.0500000000001-26.9Q 535.0500000000001-20.1  538.95-16.05Q 542.85-12  548.85-12L 548.85-12ZM 656.45-54.6Q 666.45-54.6  672.6-48.6Q 678.7500000000001-42.6  678.7500000000001-30.8L 678.7500000000001-30.8L 678.7500000000001 0L 663.1500000000001 0L 663.1500000000001-28.4Q 663.1500000000001-34.8  660.35-37.95Q 657.5500000000001-41.1  652.2500000000001-41.1L 652.2500000000001-41.1Q 646.35-41.1  642.85-37.45Q 639.35-33.8  639.35-26.6L 639.35-26.6L 639.35 0L 623.7500000000001 0L 623.7500000000001-53.8L 638.6500000000001-53.8L 638.6500000000001-47.5Q 641.7500000000001-50.9  646.35-52.75Q 650.95-54.6  656.45-54.6L 656.45-54.6ZM 754.0500000000001 0.8Q 745.5500000000001 0.8  738.8000000000001-2.75Q 732.0500000000001-6.3  728.2500000000001-12.6Q 724.4500000000002-18.9  724.4500000000002-26.9L 724.4500000000002-26.9Q 724.4500000000002-34.9  728.2500000000001-41.2Q 732.0500000000001-47.5  738.8000000000001-51.05Q 745.5500000000001-54.6  754.0500000000001-54.6L 754.0500000000001-54.6Q 762.5500000000001-54.6  769.2500000000001-51.05Q 775.9500000000002-47.5  779.7500000000001-41.2Q 783.5500000000001-34.9  783.5500000000001-26.9L 783.5500000000001-26.9Q 783.5500000000001-18.9  779.7500000000001-12.6Q 775.9500000000002-6.3  769.2500000000001-2.75Q 762.5500000000001 0.8  754.0500000000001 0.8L 754.0500000000001 0.8ZM 754.0500000000001-12Q 760.0500000000001-12  763.9000000000001-16.05Q 767.7500000000001-20.1  767.7500000000001-26.9L 767.7500000000001-26.9Q 767.7500000000001-33.7  763.9000000000001-37.75Q 760.0500000000001-41.8  754.0500000000001-41.8L 754.0500000000001-41.8Q 748.0500000000001-41.8  744.1500000000001-37.75Q 740.2500000000001-33.7  740.2500000000001-26.9L 740.2500000000001-26.9Q 740.2500000000001-20.1  744.1500000000001-16.05Q 748.0500000000001-12  754.0500000000001-12L 754.0500000000001-12ZM 897.8500000000001-54.6Q 907.9500000000002-54.6  913.9000000000001-48.65Q 919.8500000000001-42.7  919.8500000000001-30.8L 919.8500000000001-30.8L 919.8500000000001 0L 904.2500000000001 0L 904.2500000000001-28.4Q 904.2500000000001-34.8  901.6000000000001-37.95Q 898.9500000000002-41.1  894.0500000000001-41.1L 894.0500000000001-41.1Q 888.5500000000001-41.1  885.3500000000001-37.55Q 882.1500000000001-34  882.1500000000001-27L 882.1500000000001-27L 882.1500000000001 0L 866.5500000000001 0L 866.5500000000001-28.4Q 866.5500000000001-41.1  856.3500000000001-41.1L 856.3500000000001-41.1Q 850.9500000000002-41.1  847.7500000000001-37.55Q 844.5500000000001-34  844.5500000000001-27L 844.5500000000001-27L 844.5500000000001 0L 828.9500000000002 0L 828.9500000000002-53.8L 843.8500000000001-53.8L 843.8500000000001-47.6Q 846.8500000000001-51  851.2000000000002-52.8Q 855.5500000000001-54.6  860.7500000000001-54.6L 860.7500000000001-54.6Q 866.4500000000002-54.6  871.0500000000001-52.35Q 875.6500000000001-50.1  878.4500000000002-45.8L 878.4500000000002-45.8Q 881.7500000000001-50  886.8000000000001-52.3Q 891.8500000000001-54.6  897.8500000000001-54.6L 897.8500000000001-54.6ZM 1006.2500000000001-53.8L 1021.2500000000001-53.8L 996.95 3.3Q 993.2500000000001 12.6  987.8000000000001 16.4Q 982.3500000000001 20.2  974.6500000000001 20.2L 974.6500000000001 20.2Q 970.45 20.2  966.3500000000001 18.9Q 962.2500000000001 17.6 959.6500000000001 15.3L 959.6500000000001 15.3L 965.3500000000001 4.2Q 967.1500000000001 5.8  969.5000000000001 6.7Q 971.8500000000001 7.6  974.1500000000001 7.6L 974.1500000000001 7.6Q 977.3500000000001 7.6  979.3500000000001 6.05Q 981.3500000000001 4.5  982.95 0.9L 982.95 0.9L 983.1500000000001 0.4L 959.8500000000001-53.8L 975.95-53.8L 991.0500000000001-17.3L 1006.2500000000001-53.8Z" />
  <g transform="matrix(0.007050939862051497, -0.9211658193188674, 0.9211658193188675, 0.007050939862051498, 58.63840458750043, 341.7120121453211)" fill="#4380b3" stroke="#4380b3" stroke-width="2">
    <path d="M57.8,10.2c-32.2-32.7-79,21.2-45.3,55.4c0.2,0.2,0.4,0.3,0.7,0.3c0,0,0,0,0,0c0.3,0,0.5-0.1,0.7-0.4l15.1-18.6&#xA;&#x9;&#x9;c8.1,7.4,20.6,7.2,28.4-0.5C67.6,36.5,67.7,20.3,57.8,10.2z M35.7,2.2c6.7,0,13.6,2.6,20.1,8.8l-8.9,10.9c-2.8-2.5-6-3.7-9.3-3.5&#xA;&#x9;&#x9;L35.4,2.2C35.5,2.2,35.6,2.2,35.7,2.2z M14.4,11.5c5.2-5.1,11.9-8.6,19.1-9.3l2.2,16.4c-2.5,0.5-4.7,1.8-6.5,3.4l-15.9-9.3&#xA;&#x9;&#x9;C13.6,12.3,14,11.9,14.4,11.5z M11.9,14.2l15.8,9.3c-2.7,3.1-4.3,7.1-4.3,11.3L2.9,38.3C3,29.3,6.4,20.8,11.9,14.2z M13.1,63.4&#xA;&#x9;&#x9;C6.4,56.2,3.3,48.2,2.9,40.3l20.6-3.5c0.4,3.2,1.8,6.2,4.2,8.8L13.1,63.4z M29.7,44.8c-8.5-8.7-3.3-21.7,5.9-24.1&#xA;&#x9;&#x9;c15.5-4,17.3,21.8,3.9,18.1C33,36.9,33.1,28.7,38.7,28c0.5-0.1,0.9-0.4,0.9-0.9c0-0.6-0.5-1.1-1.1-1.1c-7.6,0.9-8.3,12.3,0.5,14.7&#xA;&#x9;&#x9;c2.8,0.8,5.6,0.1,7.9-1.8l8.4,6.8C47.9,52.2,36.7,51.8,29.7,44.8z M56.7,44.3l-8.4-6.8c3.4-4.1,3.4-10.1,0-14.2l8.8-10.9&#xA;&#x9;&#x9;C65.3,21.6,65.1,35.4,56.7,44.3z" transform="matrix(1, 0, 0, 1, 0, 0)" fill="#4380b3" stroke="#4380b3" stroke-width="2" />
  </g>
</svg>