<svg width="512" height="312" viewBox="0 0 512 312" fill="none" xmlns="http://www.w3.org/2000/svg">
<g clip-path="url(#clip0_1154_9606)">
<path d="M348.596 256.152L344.093 259.836C343.566 260.282 343.025 260.774 342.406 261.193L340.494 262.635L338.438 264.235C337.732 264.779 336.935 265.296 336.184 265.827L333.752 267.518C332.941 268.081 332.039 268.618 331.182 269.168L328.507 270.838L325.707 272.423C325.674 272.712 325.95 272.792 326.654 272.596C327.134 272.486 327.582 272.316 328.03 272.146C328.313 272.029 328.642 271.924 328.985 271.774L330.085 271.244C330.855 270.818 331.777 270.387 332.799 269.784C333.332 269.49 333.866 269.195 334.459 268.868L336.231 267.735C339.348 265.743 342.353 263.62 345.214 261.306L348.557 258.533C348.169 258.321 348.204 257.683 348.733 256.54C349.512 255.569 349.387 255.483 348.596 256.152Z" fill="#88BEE2" fill-opacity="0.742537"/>
<path d="M341.428 243.82L342.357 242.461L341.152 244.058C340.729 244.598 340.328 245.095 339.947 245.548L337.619 248.356C336.9 249.284 336.138 250.084 335.397 250.949L333.322 253.347L332.814 253.952L332.284 254.492L331.224 255.574L329.148 257.758C328.47 258.493 327.727 259.143 327.006 259.857L324.757 261.957C325.671 261.284 326.521 260.633 327.35 260.025C328.179 259.417 328.987 258.852 329.688 258.288C331.133 257.181 332.367 256.291 333.367 255.659C334.09 255.16 334.77 254.639 335.407 254.097C336.129 253.49 336.915 252.861 337.7 252.125L338.931 251.02L340.182 249.765L342.832 247.061C343.403 246.327 343.908 245.508 344.542 244.645L346.441 241.842C347.117 240.893 347.728 239.858 348.381 238.845C349.035 237.832 349.689 236.819 350.321 235.849C348.799 237.77 348.799 237.77 347.115 240.678L350.337 235.27L352.124 231.933C351.404 232.754 350.77 233.617 350.179 234.501C349.251 235.859 347.919 237.608 346.59 239.57C346.421 239.807 346.231 240.088 346.062 240.325L345.491 241.059L344.328 242.57C343.568 243.584 342.786 244.642 341.961 245.678L339.55 248.658L338.386 250.062C338.005 250.515 337.624 250.969 337.264 251.379C340.69 247.083 345.125 240.827 348.154 235.378L344.747 239.524L342.549 242.395L341.492 243.798L341.007 244.467L340.478 245.115L340.964 244.446L341.428 243.82Z" fill="#88BEE2" fill-opacity="0.742537"/>
<path d="M296.411 270.957L294.036 271.676C292.476 272.107 290.984 272.585 289.695 272.969C286.981 273.687 284.946 274.309 284.336 274.788C285.285 274.74 286.167 274.597 287.049 274.405C287.727 274.261 288.474 274.118 289.288 273.974L290.577 273.687C291.052 273.591 291.459 273.447 291.933 273.352L298.039 271.771L304.348 269.904C305.501 269.616 306.587 269.233 307.604 268.898L310.453 267.509C311.471 267.03 312.489 266.6 313.438 266.025L316.491 264.445L318.051 263.63L318.865 263.247L319.612 262.816C318.798 263.2 317.916 263.487 317.034 263.822L314.388 264.78L311.742 265.785L309.029 266.695L305.637 268.276C305.026 268.563 304.416 268.802 303.737 269.09L301.838 269.856C301.499 269.856 301.092 269.904 300.685 269.952C301.024 269.664 301.567 269.329 303.67 268.467L303.263 268.611C301.16 269.233 298.989 269.856 296.818 270.478C297.564 270.43 298.175 270.287 298.853 270.191L297.7 270.622C297.225 270.718 296.818 270.861 296.411 270.957Z" fill="#88BEE2" fill-opacity="0.742537"/>
<path d="M320.141 281.684C318.395 282.002 317.475 281.96 317.476 281.451C317.517 281.04 318.086 280.392 319.476 279.315C319.86 278.95 318.791 279.224 316.896 279.858C315.966 280.19 314.771 280.608 313.444 281.103C312.117 281.597 310.583 282.038 308.986 282.55C302.628 284.562 294.705 286.542 289.617 287.18C286.595 287.208 288.229 286.218 292.042 284.779C292.538 284.577 293.039 284.442 293.567 284.204L295.255 283.516C296.446 283.03 297.737 282.504 299.1 282.041L303.297 280.238C304.023 279.919 304.718 279.635 305.476 279.28L307.616 278.223C309.29 277.332 311.068 276.468 312.734 275.442C312.968 275.392 313.167 275.311 313.402 275.262L315.532 274.069L316.547 273.493L317.527 272.886C316.57 273.322 315.541 273.695 314.544 274.032L311.656 275.07C311.191 275.237 310.695 275.439 310.194 275.574L308.795 276.005L306.03 276.831C304.572 277.402 303.142 277.87 301.675 278.305L303.927 277.411L300.246 278.263L298.504 278.649C297.936 278.788 297.394 278.823 296.857 278.926C295.815 279.096 294.805 279.23 293.862 279.36C292.987 279.485 292.143 279.574 291.295 279.596C290.073 279.608 288.548 279.674 286.762 279.892C285.887 280.018 284.903 280.048 283.889 280.114C282.874 280.181 281.795 280.319 280.645 280.394C279.675 280.628 278.696 280.726 277.686 280.86L274.519 281.271C276.572 280.967 277.916 280.743 278.886 280.51L275.706 280.718C274.623 280.788 273.473 280.864 272.355 280.903L271.268 280.906C273.704 280.237 276.154 279.771 278.68 279.436C275.5 279.644 271.954 279.978 267.998 280.27L270.664 279.994C271.643 279.896 272.658 279.83 273.7 279.66L276.93 279.177C275.446 279.342 274.395 279.376 274.756 279.183C275.591 278.958 276.565 278.793 277.639 278.587C270.129 279.078 262.976 278.798 257.686 277.921L255.797 277.603C255.179 277.508 254.624 277.34 254.074 277.24C253.005 277.004 252.072 276.759 251.306 276.47C250.683 276.307 250.088 276.04 249.489 275.705C249.173 275.556 248.885 275.303 248.759 274.938L244.579 274.396C242.45 274.059 240.556 273.674 238.802 273.347C237.048 273.02 235.488 272.544 234.104 272.159C232.72 271.774 231.471 271.38 230.393 271.009C229.316 270.638 228.378 270.325 227.576 270.004C224.433 268.715 223.433 267.965 223.921 267.627L222.081 267.034L220.336 266.332L216.748 264.97L213.218 263.468L211.505 262.731L209.855 261.922L206.623 260.298C205.569 259.756 204.613 259.173 203.658 258.59C202.702 258.007 201.787 257.523 200.935 256.967L198.52 255.358L196.704 254.084C196.1 253.682 195.559 253.208 194.951 252.738C193.806 251.862 192.662 250.985 191.585 250.104C189.458 248.239 187.305 246.477 185.444 244.526C181.633 240.8 178.043 236.822 174.81 232.583L171.062 228.785L169.378 226.925L168.851 226.144C168.401 225.494 167.951 224.844 167.536 224.225L166.393 222.329C165.668 221.12 165.025 220.109 164.593 219.22C164.282 218.628 164.04 218.033 163.828 217.401C164.396 217.771 165.193 219.044 166.386 220.665C166.949 221.478 167.588 222.421 168.264 223.396C168.939 224.371 169.714 225.306 170.457 226.277L169.894 224.954L168.953 223.555C167.202 221.189 165.351 218.864 163.816 216.688L162.307 214.918C161.793 214.34 161.343 213.69 160.857 213.009L159.479 211.162C159.033 210.58 158.587 209.997 158.209 209.411C159.007 210.174 159.745 211.077 160.38 211.953C160.862 212.567 161.389 213.348 161.915 214.128C162.442 214.909 163.145 215.781 163.78 216.657C164.667 217.754 165.653 218.81 166.635 219.799C163.161 213.945 160.11 207.825 157.624 201.499C157.192 200.609 156.765 199.788 156.337 198.967L156.495 199.296L157.426 201.07L156.828 199.716C156.661 199.251 156.427 198.791 156.293 198.29C155.731 196.968 154.912 195.357 154.107 193.439L152.852 190.361C152.645 189.797 152.407 189.269 152.2 188.705L151.607 186.909C149.733 181.629 148.292 176.22 147.252 170.716C147.294 169.796 147.331 168.808 147.333 167.789C147.37 166.801 147.407 165.813 147.508 164.753L147.541 163.188L147.556 162.372C147.574 162.133 147.588 161.826 147.607 161.587C147.707 160.527 147.74 159.472 147.768 158.349C147.801 157.803 147.797 157.226 147.829 156.68L147.958 155.007C148.054 153.88 148.114 152.72 148.174 151.561C148.302 150.398 148.393 149.203 148.521 148.039L148.677 146.262L148.931 144.445L149.351 140.986L149.937 137.482L150.228 135.696L150.586 133.906L151.267 130.294C151.857 127.877 152.342 125.433 153.063 122.94L153.552 121.073L153.797 120.14C153.879 119.829 153.996 119.549 154.109 119.202L155.26 115.492C155.423 114.869 155.69 114.274 155.92 113.648L156.613 111.768L157.305 109.888L158.101 108.035C158.631 106.777 159.128 105.556 159.694 104.329L161.489 100.611L161.937 99.664L162.42 98.749L163.388 96.919L164.355 95.089C164.69 94.4895 165.061 93.9217 165.427 93.2862L167.605 89.7122L169.959 86.2286C173.868 80.5369 178.313 75.2517 183.159 70.3821C187.209 66.3458 191.585 62.5941 196.261 59.2984C196.844 58.8526 197.53 58.434 198.18 57.9837C198.83 57.5335 199.548 57.0789 200.27 56.6919C201.714 55.9179 203.159 55.1439 204.44 54.4825C207.116 53.3221 209.102 52.5128 209.102 52.5128C213.439 50.2585 217.93 48.266 222.537 46.5037C224.721 45.6133 226.918 44.926 229.044 44.1754C230.104 43.7663 231.21 43.5241 232.274 43.1827L235.442 42.262C243.491 40.1386 251.796 38.8139 260.123 38.3372C268.653 37.8472 277.177 38.3089 285.56 39.7311C291.783 40.8529 297.87 42.4933 303.753 44.6566C310.471 47.1051 316.962 50.2479 323.086 54.0263C324.29 54.763 325.394 55.5401 326.597 56.2768L328.337 57.4201C328.905 57.7907 329.441 58.1973 329.977 58.6039L333.258 60.9714C334.33 61.7846 335.371 62.6339 336.412 63.4831L337.989 64.739C338.525 65.1456 338.998 65.6243 339.467 66.0353L342.422 68.628C342.927 69.0706 343.364 69.5177 343.868 69.9603L345.283 71.3288L346.698 72.6972L347.387 73.3656L348.044 74.07C353.617 79.7871 358.679 86.0133 363.086 92.622L365.85 96.9599L368.379 101.347C368.834 102.065 369.189 102.823 369.581 103.613L370.746 105.847C371.556 107.323 372.235 108.875 372.914 110.428C378.501 122.599 382.039 135.652 383.421 148.982L383.652 151.481L383.768 152.731C383.794 153.137 383.789 153.579 383.816 153.985C383.859 155.68 383.969 157.372 384.012 159.068L384.006 164.165C384.027 165.013 383.914 165.87 383.904 166.754L383.765 169.311C383.641 171.052 383.418 172.833 383.091 174.587L382.846 176.03C382.741 176.513 382.668 176.959 382.564 177.441L381.902 180.305C381.693 181.27 381.485 182.235 381.208 183.204L380.438 185.972C380.193 186.906 379.944 187.771 379.763 188.633C379.581 189.494 379.26 190.296 379.074 191.09L378.435 193.272L378.1 194.381L377.729 195.459L376.258 199.972C375.126 202.934 374.035 205.995 372.697 208.903L371.751 211.071C371.426 211.806 371.064 212.509 370.702 213.212L368.663 217.355L366.507 221.267C366.14 221.902 365.842 222.533 365.476 223.169L364.436 224.936L362.447 228.293L360.5 231.241L358.801 233.832C358.24 234.616 357.775 235.292 357.341 235.932C355.638 238.456 354.91 239.795 355.564 239.412C356.164 239.237 357.148 238.697 358.408 237.697C360.029 236.504 361.609 235.211 363.077 233.756C363.971 232.882 364.892 231.905 365.913 230.887C366.933 229.869 367.837 228.62 368.912 227.395C369.413 226.751 370.019 226.133 370.516 225.421L372.074 223.281C373.168 221.816 374.257 220.284 375.301 218.585C380.177 211.063 384.133 202.99 387.044 194.51L388.239 190.966L389.259 187.332C389.983 184.906 390.532 182.39 391.077 179.807C391.367 178.53 391.59 177.259 391.776 175.956L392.404 172.041L392.823 168.073C392.974 166.738 393.124 165.403 393.176 164.109C394.015 153.046 393.492 141.936 391.589 131.018C391.329 129.642 391.105 128.298 390.845 126.922L389.935 122.871L389.464 120.863L388.925 118.86L387.811 114.821C386.167 109.425 384.194 104.186 381.886 99.0366C380.798 96.4238 379.48 93.9279 378.193 91.396L377.689 90.4436L377.153 89.5274L376.114 87.6588L375.074 85.7902C374.728 85.1673 374.381 84.5444 374.003 83.9576C372.522 81.5743 371.037 79.1233 369.321 76.7893C368.497 75.6201 367.673 74.4508 366.818 73.3177L364.183 69.9226L362.891 68.3423L361.459 66.7033L358.594 63.4252C357.608 62.3685 356.589 61.3479 355.603 60.2912C354.617 59.2346 353.63 58.1779 352.513 57.1977L349.328 54.2124C349.075 53.9911 348.787 53.7381 348.499 53.4852L347.67 52.758L345.98 51.3396L344.29 49.9212C343.75 49.447 343.173 48.9411 342.569 48.5389L339.1 45.878C325.211 35.6085 309.466 28.1106 292.774 23.8004C291.187 23.4286 289.627 22.9531 287.981 22.721L285.158 22.1582L283.715 21.9128L282.993 21.7901L282.272 21.6674L276.441 20.8257L270.529 20.2951C268.549 20.1528 266.542 20.1143 264.566 20.0396C249.836 19.7461 235.12 21.7619 221.029 26.0472L218.863 26.6985L216.769 27.413L212.88 28.7207L206.314 31.1887C203.435 32.3623 200.484 33.4727 197.753 34.8404L195.641 35.794L194.585 36.2708C194.256 36.4282 193.895 36.6217 193.565 36.7792L189.458 38.9165C188.668 39.3079 187.951 39.7626 187.197 40.1856L185.039 41.4819L182.814 42.7826L180.697 44.1782L178.58 45.5738C177.862 46.0284 177.144 46.4831 176.467 47.037L172.354 50.126C171.673 50.6122 170.995 51.1662 170.35 51.6841L168.381 53.2738L166.381 54.8995L164.489 56.6201L162.597 58.3407L161.667 59.183C161.346 59.4758 161.026 59.7686 160.773 60.0569L157.137 63.6922L156.324 64.7647L155.515 65.9048L153.898 68.1851L152.312 70.4292C151.819 71.2089 151.358 71.9526 150.929 72.6601C149.958 73.9128 148.919 75.1699 147.952 76.4903L145.065 80.6542L144.319 81.7223C144.07 82.0783 143.858 82.4659 143.609 82.8219L142.227 85.0528L140.848 87.3514C140.387 88.095 139.998 88.9019 139.542 89.7132L138.271 92.1066C137.815 92.9179 137.39 93.6932 137.037 94.5317L134.681 99.5443C133.943 101.257 133.242 103.002 132.541 104.747C132.364 105.166 132.156 105.621 132.016 106.072L131.491 107.397L130.545 110.075C128.127 117.266 126.368 124.652 125.159 132.138C124.063 139.277 123.517 146.515 123.585 153.781L123.567 154.02C123.324 152.915 123.139 153.199 123.007 154.295C122.779 156.008 122.723 157.745 122.734 159.477C122.793 163.482 123.054 167.474 123.518 171.453C124.21 176.844 124.985 181.414 125.864 185.501L126.5 188.483L126.832 189.923C126.931 190.392 127.097 190.857 127.196 191.326L128.597 196.636L130.151 201.699C130.281 202.132 130.411 202.565 130.573 202.962L131.027 204.19L131.94 206.712C132.268 207.574 132.528 208.44 132.893 209.334L133.985 212.014L135.155 214.826C135.555 215.751 136.027 216.739 136.5 217.728L137.633 219.998L138.218 221.149C138.412 221.51 138.641 221.902 138.835 222.263L141.369 226.718C146.095 234.563 151.57 241.918 157.75 248.614C163.966 255.342 170.688 261.494 177.983 267.064C179.308 268.099 180.687 268.926 181.899 269.798L183.783 271.068C184.387 271.47 184.959 271.908 185.595 272.274L189.029 274.394L190.656 275.375C191.188 275.714 191.715 275.985 192.242 276.256L195.204 277.897C196.155 278.413 197.038 278.932 197.917 279.385C199.675 280.289 201.257 281.103 202.704 281.925L206.707 283.906C207.901 284.507 209.028 285.113 210.078 285.588C212.147 286.574 213.869 287.446 215.447 288.193C218.666 289.613 221.338 291.001 225.432 292.296L227.028 292.803C227.583 292.971 228.174 293.17 228.76 293.302C230.004 293.628 231.348 293.914 232.831 294.258C233.589 294.413 234.351 294.635 235.172 294.717L237.747 295.126C239.564 295.381 241.557 295.726 243.776 295.887C251.98 296.641 260.274 296.71 268.497 296.206C277.46 295.586 286.374 294.221 295.1 292.054C296.233 291.708 297.397 291.326 298.628 290.94C299.86 290.553 301.06 290.203 302.288 289.749L305.871 288.427C307.031 287.978 308.195 287.596 309.287 287.151C315.577 284.633 318.213 283.373 320.072 282.708C321.002 282.375 321.728 282.056 322.59 281.728C323.452 281.4 324.409 280.963 325.821 280.225L323.376 281.269L327.194 279.388C324.942 280.283 322.546 281.051 320.141 281.684ZM264.99 280.501L261.981 280.732C263.027 280.63 264.006 280.532 264.99 280.501ZM172.783 233.803L173.666 234.832L174.581 235.826C175.819 237.104 176.986 238.318 178.072 239.335C177.932 239.276 177.725 239.221 177.553 239.199C177.297 238.91 177.076 238.652 176.819 238.363L174.918 236.313L174.004 235.32L173.531 234.841L173.09 234.326C171.95 233.008 170.847 231.721 169.756 230.637C169.932 230.728 170.072 230.786 170.279 230.841C170.5 231.098 170.689 231.392 170.978 231.645L172.783 233.803ZM156.301 198.935C156.108 198.574 155.946 198.177 155.788 197.847C155.977 198.141 156.139 198.538 156.301 198.935Z" fill="#88BEE2" fill-opacity="0.742537"/>
<path d="M24.4378 133.082V182.477H17.5226V118.264H24.4378L45.8749 167.658V118.264H52.7901V182.477H45.8749L24.4378 133.082ZM158.988 130.613V170.128C158.988 174.541 157.588 177.949 154.789 180.353C151.99 182.756 147.808 183.958 142.243 183.958C136.678 183.958 132.479 182.756 129.647 180.353C126.816 177.949 125.4 174.541 125.4 170.128V130.613C125.4 126.2 126.799 122.792 129.598 120.388C132.397 117.984 136.579 116.782 142.144 116.782C147.709 116.782 151.908 117.984 154.74 120.388C157.572 122.792 158.988 126.2 158.988 130.613ZM152.072 170.128V130.613C152.072 125.344 148.78 122.71 142.194 122.71C135.608 122.71 132.315 125.344 132.315 130.613V170.128C132.315 175.397 135.608 178.031 142.194 178.031C148.78 178.031 152.072 175.397 152.072 170.128ZM187.142 133.082V182.477H180.227V118.264H187.142L208.58 167.658V118.264H215.495V182.477H208.58L187.142 133.082ZM268.84 130.613V182.477H265.877L263.308 176.154C261.925 178.525 260.114 180.418 257.875 181.834C255.636 183.25 253.166 183.958 250.466 183.958C240.982 183.958 236.24 179.348 236.24 170.128V160.249C236.24 151.029 240.982 146.419 250.466 146.419H261.925V130.217C261.925 127.847 261.168 126.002 259.653 124.685C258.138 123.368 255.899 122.71 252.935 122.71C247.074 122.71 244.143 125.212 244.143 130.217V136.046H237.228V130.613C237.228 126.2 238.529 122.792 241.13 120.388C243.732 117.984 247.667 116.782 252.935 116.782C258.204 116.782 262.172 117.984 264.84 120.388C267.507 122.792 268.84 126.2 268.84 130.613ZM261.925 168.449V152.346H250.466C247.7 152.346 245.79 153.038 244.736 154.421C243.682 155.804 243.155 157.747 243.155 160.249V170.128C243.155 172.631 243.682 174.573 244.736 175.957C245.79 177.34 247.7 178.031 250.466 178.031C253.232 178.031 255.8 176.961 258.171 174.82C260.542 172.68 261.794 170.556 261.925 168.449ZM289.586 170.128V118.264H296.501V170.128C296.501 172.631 297.045 174.573 298.131 175.957C299.218 177.34 301.21 178.031 304.108 178.031C307.006 178.031 309.673 176.911 312.11 174.672C314.547 172.433 315.765 170.26 315.765 168.152V118.264H322.68V182.477H319.717L317.148 176.154C315.699 178.525 313.839 180.418 311.566 181.834C309.294 183.25 306.808 183.958 304.108 183.958C294.427 183.958 289.586 179.348 289.586 170.128ZM343.92 171.116V118.264H365.653V124.191H350.835V171.511C350.835 173.355 351.312 174.903 352.267 176.154C353.222 177.405 354.572 178.031 356.318 178.031C358.063 178.031 359.397 177.422 360.319 176.203C361.241 174.985 361.702 173.421 361.702 171.511V159.755H368.617V171.116C368.617 175.265 367.514 178.443 365.307 180.649C363.101 182.855 360.121 183.958 356.367 183.958C352.613 183.958 349.6 182.855 347.328 180.649C345.056 178.443 343.92 175.265 343.92 171.116ZM392.326 118.264V182.477H385.411V118.264H392.326ZM439.251 170.128V164.695H446.166V170.128C446.166 174.541 444.816 177.949 442.115 180.353C439.415 182.756 435.365 183.958 429.964 183.958C424.564 183.958 420.481 182.756 417.715 180.353C414.949 177.949 413.566 174.541 413.566 170.128V130.613C413.566 126.2 414.916 122.792 417.616 120.388C420.316 117.984 424.366 116.782 429.767 116.782C435.167 116.782 439.251 117.984 442.017 120.388C444.783 122.792 446.166 126.2 446.166 130.613V139.998H439.251V130.613C439.251 125.344 436.122 122.71 429.866 122.71C423.609 122.71 420.481 125.344 420.481 130.613V170.128C420.481 175.397 423.609 178.031 429.866 178.031C436.122 178.031 439.251 175.397 439.251 170.128ZM497.042 130.613V182.477H494.078L491.51 176.154C490.127 178.525 488.315 180.418 486.076 181.834C483.837 183.25 481.367 183.958 478.667 183.958C469.183 183.958 464.442 179.348 464.442 170.128V160.249C464.442 151.029 469.183 146.419 478.667 146.419H490.127V130.217C490.127 127.847 489.369 126.002 487.854 124.685C486.34 123.368 484.101 122.71 481.137 122.71C475.275 122.71 472.345 125.212 472.345 130.217V136.046H465.43V130.613C465.43 126.2 466.73 122.792 469.332 120.388C471.933 117.984 475.868 116.782 481.137 116.782C486.406 116.782 490.374 117.984 493.041 120.388C495.708 122.792 497.042 126.2 497.042 130.613ZM490.127 168.449V152.346H478.667C475.901 152.346 473.991 153.038 472.937 154.421C471.884 155.804 471.357 157.747 471.357 160.249V170.128C471.357 172.631 471.884 174.573 472.937 175.957C473.991 177.34 475.901 178.031 478.667 178.031C481.433 178.031 484.002 176.961 486.373 174.82C488.744 172.68 489.995 170.556 490.127 168.449Z" fill="#083B66"/>
<path d="M113.24 222.922L112.317 220.689H107.479L106.556 222.922H104.085L108.729 212.502H111.111L115.77 222.922H113.24ZM108.253 218.858H111.558L109.905 214.869L108.253 218.858ZM143.234 222.922H140.972L140.957 216.67L137.89 221.821H136.804L133.752 216.804V222.922H131.489V212.502H133.484L137.384 218.977L141.225 212.502H143.204L143.234 222.922ZM154.562 223.041C153.719 223.041 152.962 222.865 152.292 222.513C151.622 222.16 151.099 221.672 150.722 221.046C150.345 220.421 150.156 219.712 150.156 218.918C150.156 218.124 150.345 217.414 150.722 216.789C151.099 216.164 151.622 215.675 152.292 215.323C152.962 214.971 153.719 214.795 154.562 214.795C155.406 214.795 156.16 214.971 156.825 215.323C157.49 215.675 158.011 216.164 158.388 216.789C158.765 217.414 158.953 218.124 158.953 218.918C158.953 219.712 158.765 220.421 158.388 221.046C158.011 221.672 157.49 222.16 156.825 222.513C156.16 222.865 155.406 223.041 154.562 223.041ZM154.562 221.136C155.158 221.136 155.646 220.935 156.028 220.533C156.41 220.131 156.601 219.593 156.601 218.918C156.601 218.243 156.41 217.705 156.028 217.303C155.646 216.901 155.158 216.7 154.562 216.7C153.967 216.7 153.475 216.901 153.088 217.303C152.701 217.705 152.508 218.243 152.508 218.918C152.508 219.593 152.701 220.131 153.088 220.533C153.475 220.935 153.967 221.136 154.562 221.136ZM171.204 214.914H173.437L170.058 222.922H167.661L164.297 214.914H166.694L168.912 220.362L171.204 214.914ZM187.221 218.948C187.221 218.977 187.206 219.186 187.176 219.573H181.118C181.227 220.069 181.485 220.461 181.892 220.749C182.299 221.037 182.805 221.18 183.41 221.18C183.827 221.18 184.197 221.118 184.519 220.994C184.842 220.87 185.142 220.674 185.42 220.406L186.655 221.746C185.901 222.609 184.8 223.041 183.351 223.041C182.448 223.041 181.649 222.865 180.954 222.513C180.26 222.16 179.724 221.672 179.347 221.046C178.97 220.421 178.781 219.712 178.781 218.918C178.781 218.134 178.967 217.427 179.339 216.797C179.711 216.166 180.222 215.675 180.872 215.323C181.522 214.971 182.249 214.795 183.053 214.795C183.837 214.795 184.547 214.963 185.182 215.301C185.817 215.638 186.316 216.122 186.678 216.752C187.04 217.382 187.221 218.114 187.221 218.948ZM183.068 216.551C182.542 216.551 182.1 216.7 181.743 216.998C181.386 217.295 181.168 217.702 181.088 218.218H185.033C184.954 217.712 184.735 217.308 184.378 217.005C184.021 216.702 183.584 216.551 183.068 216.551ZM207.942 220.898L208.567 222.535C208.339 222.704 208.058 222.83 207.726 222.915C207.394 222.999 207.044 223.041 206.677 223.041C205.724 223.041 204.987 222.798 204.466 222.312C203.945 221.825 203.685 221.111 203.685 220.168V216.879H202.449V215.092H203.685V213.142H206.007V215.092H208.001V216.879H206.007V220.138C206.007 220.476 206.094 220.736 206.267 220.92C206.441 221.104 206.687 221.195 207.004 221.195C207.371 221.195 207.684 221.096 207.942 220.898ZM218.645 223.041C217.801 223.041 217.044 222.865 216.375 222.513C215.705 222.16 215.181 221.672 214.804 221.046C214.427 220.421 214.238 219.712 214.238 218.918C214.238 218.124 214.427 217.414 214.804 216.789C215.181 216.164 215.705 215.675 216.375 215.323C217.044 214.971 217.801 214.795 218.645 214.795C219.488 214.795 220.242 214.971 220.907 215.323C221.572 215.675 222.093 216.164 222.47 216.789C222.847 217.414 223.036 218.124 223.036 218.918C223.036 219.712 222.847 220.421 222.47 221.046C222.093 221.672 221.572 222.16 220.907 222.513C220.242 222.865 219.488 223.041 218.645 223.041ZM218.645 221.136C219.24 221.136 219.729 220.935 220.111 220.533C220.493 220.131 220.684 219.593 220.684 218.918C220.684 218.243 220.493 217.705 220.111 217.303C219.729 216.901 219.24 216.7 218.645 216.7C218.049 216.7 217.558 216.901 217.171 217.303C216.784 217.705 216.59 218.243 216.59 218.918C216.59 219.593 216.784 220.131 217.171 220.533C217.558 220.935 218.049 221.136 218.645 221.136ZM247.031 217.504C247.627 217.692 248.093 218.007 248.431 218.449C248.768 218.891 248.937 219.434 248.937 220.079C248.937 220.992 248.582 221.694 247.872 222.185C247.163 222.676 246.128 222.922 244.769 222.922H239.38V212.502H244.471C245.741 212.502 246.716 212.745 247.396 213.232C248.076 213.718 248.416 214.378 248.416 215.211C248.416 215.717 248.294 216.169 248.051 216.566C247.808 216.963 247.468 217.275 247.031 217.504ZM244.173 214.318H241.777V216.774H244.173C244.769 216.774 245.22 216.67 245.528 216.462C245.836 216.253 245.989 215.946 245.989 215.539C245.989 215.132 245.836 214.827 245.528 214.623C245.22 214.42 244.769 214.318 244.173 214.318ZM244.59 221.106C245.225 221.106 245.704 221.002 246.027 220.793C246.349 220.585 246.51 220.263 246.51 219.826C246.51 218.962 245.87 218.531 244.59 218.531H241.777V221.106H244.59ZM255.814 222.922V211.877H258.136V222.922H255.814ZM271.25 214.914H273.572V222.922H271.369V221.969C271.062 222.317 270.695 222.582 270.268 222.766C269.841 222.949 269.38 223.041 268.883 223.041C267.832 223.041 266.998 222.738 266.383 222.133C265.767 221.528 265.46 220.63 265.46 219.439V214.914H267.782V219.096C267.782 220.387 268.323 221.032 269.404 221.032C269.96 221.032 270.407 220.85 270.744 220.488C271.082 220.126 271.25 219.588 271.25 218.873V214.914ZM288.786 218.948C288.786 218.977 288.771 219.186 288.741 219.573H282.682C282.792 220.069 283.05 220.461 283.456 220.749C283.863 221.037 284.369 221.18 284.975 221.18C285.392 221.18 285.761 221.118 286.084 220.994C286.406 220.87 286.707 220.674 286.984 220.406L288.22 221.746C287.466 222.609 286.364 223.041 284.915 223.041C284.012 223.041 283.213 222.865 282.519 222.513C281.824 222.16 281.288 221.672 280.911 221.046C280.534 220.421 280.345 219.712 280.345 218.918C280.345 218.134 280.531 217.427 280.904 216.797C281.276 216.166 281.787 215.675 282.437 215.323C283.087 214.971 283.814 214.795 284.618 214.795C285.402 214.795 286.111 214.963 286.746 215.301C287.381 215.638 287.88 216.122 288.242 216.752C288.604 217.382 288.786 218.114 288.786 218.948ZM284.632 216.551C284.106 216.551 283.665 216.7 283.308 216.998C282.95 217.295 282.732 217.702 282.653 218.218H286.597C286.518 217.712 286.3 217.308 285.942 217.005C285.585 216.702 285.148 216.551 284.632 216.551ZM307.526 220.987H313.198V222.922H305.13V212.502H313.004V214.437H307.526V216.7H312.364V218.575H307.526V220.987ZM323.975 223.041C323.122 223.041 322.355 222.865 321.675 222.513C320.995 222.16 320.465 221.672 320.083 221.046C319.7 220.421 319.509 219.712 319.509 218.918C319.509 218.124 319.7 217.414 320.083 216.789C320.465 216.164 320.995 215.675 321.675 215.323C322.355 214.971 323.122 214.795 323.975 214.795C324.819 214.795 325.555 214.971 326.186 215.323C326.816 215.675 327.275 216.179 327.563 216.834L325.761 217.801C325.345 217.067 324.744 216.7 323.96 216.7C323.355 216.7 322.854 216.898 322.457 217.295C322.06 217.692 321.861 218.233 321.861 218.918C321.861 219.603 322.06 220.143 322.457 220.54C322.854 220.937 323.355 221.136 323.96 221.136C324.754 221.136 325.354 220.769 325.761 220.034L327.563 221.017C327.275 221.652 326.816 222.148 326.186 222.505C325.555 222.863 324.819 223.041 323.975 223.041ZM337.819 223.041C336.975 223.041 336.218 222.865 335.549 222.513C334.879 222.16 334.355 221.672 333.978 221.046C333.601 220.421 333.413 219.712 333.413 218.918C333.413 218.124 333.601 217.414 333.978 216.789C334.355 216.164 334.879 215.675 335.549 215.323C336.218 214.971 336.975 214.795 337.819 214.795C338.662 214.795 339.416 214.971 340.081 215.323C340.746 215.675 341.267 216.164 341.644 216.789C342.021 217.414 342.21 218.124 342.21 218.918C342.21 219.712 342.021 220.421 341.644 221.046C341.267 221.672 340.746 222.16 340.081 222.513C339.416 222.865 338.662 223.041 337.819 223.041ZM337.819 221.136C338.414 221.136 338.903 220.935 339.285 220.533C339.667 220.131 339.858 219.593 339.858 218.918C339.858 218.243 339.667 217.705 339.285 217.303C338.903 216.901 338.414 216.7 337.819 216.7C337.223 216.7 336.732 216.901 336.345 217.303C335.958 217.705 335.764 218.243 335.764 218.918C335.764 219.593 335.958 220.131 336.345 220.533C336.732 220.935 337.223 221.136 337.819 221.136ZM353.836 214.795C354.828 214.795 355.629 215.092 356.24 215.688C356.85 216.283 357.155 217.166 357.155 218.337V222.922H354.833V218.695C354.833 218.059 354.694 217.586 354.416 217.273C354.138 216.96 353.736 216.804 353.21 216.804C352.625 216.804 352.158 216.985 351.811 217.347C351.464 217.71 351.29 218.248 351.29 218.962V222.922H348.968V214.914H351.186V215.851C351.494 215.514 351.876 215.254 352.332 215.07C352.789 214.886 353.29 214.795 353.836 214.795ZM368.364 223.041C367.52 223.041 366.764 222.865 366.094 222.513C365.424 222.16 364.901 221.672 364.523 221.046C364.146 220.421 363.958 219.712 363.958 218.918C363.958 218.124 364.146 217.414 364.523 216.789C364.901 216.164 365.424 215.675 366.094 215.323C366.764 214.971 367.52 214.795 368.364 214.795C369.207 214.795 369.962 214.971 370.627 215.323C371.291 215.675 371.812 216.164 372.19 216.789C372.567 217.414 372.755 218.124 372.755 218.918C372.755 219.712 372.567 220.421 372.19 221.046C371.812 221.672 371.291 222.16 370.627 222.513C369.962 222.865 369.207 223.041 368.364 223.041ZM368.364 221.136C368.959 221.136 369.448 220.935 369.83 220.533C370.212 220.131 370.403 219.593 370.403 218.918C370.403 218.243 370.212 217.705 369.83 217.303C369.448 216.901 368.959 216.7 368.364 216.7C367.768 216.7 367.277 216.901 366.89 217.303C366.503 217.705 366.31 218.243 366.31 218.918C366.31 219.593 366.503 220.131 366.89 220.533C367.277 220.935 367.768 221.136 368.364 221.136ZM389.769 214.795C390.772 214.795 391.568 215.09 392.159 215.68C392.749 216.271 393.044 217.156 393.044 218.337V222.922H390.722V218.695C390.722 218.059 390.591 217.586 390.328 217.273C390.065 216.96 389.69 216.804 389.204 216.804C388.658 216.804 388.226 216.98 387.909 217.333C387.591 217.685 387.432 218.208 387.432 218.903V222.922H385.11V218.695C385.11 217.434 384.604 216.804 383.592 216.804C383.056 216.804 382.629 216.98 382.312 217.333C381.994 217.685 381.835 218.208 381.835 218.903V222.922H379.513V214.914H381.731V215.837C382.029 215.499 382.394 215.241 382.825 215.062C383.257 214.884 383.731 214.795 384.247 214.795C384.812 214.795 385.324 214.906 385.78 215.129C386.237 215.353 386.604 215.678 386.882 216.104C387.209 215.688 387.623 215.365 388.125 215.137C388.626 214.909 389.174 214.795 389.769 214.795ZM405.905 214.914H408.138L404.521 223.413C404.154 224.336 403.7 224.986 403.159 225.363C402.618 225.74 401.966 225.929 401.202 225.929C400.785 225.929 400.373 225.864 399.966 225.735C399.559 225.606 399.227 225.428 398.969 225.2L399.817 223.547C399.996 223.706 400.202 223.83 400.435 223.919C400.668 224.009 400.899 224.053 401.127 224.053C401.445 224.053 401.703 223.976 401.901 223.823C402.1 223.669 402.278 223.413 402.437 223.056L402.467 222.982L398.998 214.914H401.395L403.643 220.347L405.905 214.914Z" fill="#083B66" fill-opacity="0.720149"/>
<path d="M68.4419 128.541C38.0927 157.972 87.4136 201.463 119.155 170.66C119.341 170.478 119.434 170.294 119.436 170.018C119.438 169.741 119.348 169.556 119.073 169.37L102.046 155.329C108.919 147.92 108.823 136.404 101.785 129.165C92.7376 119.699 77.8155 119.493 68.4419 128.541ZM60.9167 148.842C60.964 142.671 63.4076 136.333 69.1647 130.389L79.1427 138.664C76.82 141.226 75.692 144.165 75.853 147.206L60.9146 149.119C60.9153 149.027 60.916 148.934 60.9167 148.842ZM69.3334 168.529C64.6721 163.703 61.4953 157.506 60.9012 150.869L76.0238 148.958C76.4668 151.264 77.6488 153.3 79.11 154.97L70.431 169.551C70.0647 169.271 69.699 168.9 69.3334 168.529ZM71.8029 170.851L80.4811 156.362C83.3177 158.871 86.9911 160.373 90.86 160.403L93.9395 179.311C85.6498 179.156 77.8438 175.964 71.8029 170.851ZM117.133 170.092C110.453 176.213 103.062 179.012 95.7819 179.325L92.703 160.325C95.6536 159.979 98.427 158.71 100.839 156.518L117.133 170.092ZM100.116 154.67C92.042 162.438 80.1035 157.557 77.9576 149.065C74.3822 134.759 98.161 133.282 94.6582 145.6C92.8621 151.574 85.3093 151.424 84.704 146.261C84.6154 145.799 84.3418 145.429 83.8813 145.425C83.3286 145.421 82.8644 145.878 82.8602 146.431C83.6357 153.438 94.132 154.163 96.4049 146.074C97.1616 143.5 96.5365 140.916 94.8025 138.784L101.126 131.094C107.061 137.957 106.614 148.271 100.116 154.67ZM99.8459 129.795L93.5227 137.485C89.7699 134.324 84.2429 134.281 80.4422 137.384L70.4635 129.201C78.996 121.713 91.7067 121.994 99.8459 129.795Z" fill="#4380B3" stroke="#4380B3" stroke-width="1.84239"/>
</g>
<defs>
<clipPath id="clip0_1154_9606">
<rect width="512" height="312" fill="white"/>
</clipPath>
</defs>
</svg>
