<svg width="96" height="96" viewBox="0 0 96 96" fill="none" xmlns="http://www.w3.org/2000/svg">
<path d="M55.4926 57.3325V8L49.5512 11.8331C33.9155 22.2476 22.7438 38.1368 18.2345 56.3742L18.0045 57.3325H8L13.3281 73.24C12.0921 72.8329 10.796 72.6385 9.49492 72.6651V80.3313C11.6415 80.3313 12.5614 81.1746 14.4397 83.0529C15.7118 84.5778 17.2989 85.8093 19.092 86.6629C20.8851 87.5164 22.8418 87.9718 24.8275 87.9976C26.8081 87.9739 28.7598 87.5193 30.547 86.6654C32.3342 85.8115 33.9141 84.5788 35.177 83.0529C37.0552 81.1746 37.9751 80.3313 40.1217 80.3313C42.2683 80.3313 43.1882 81.1746 45.1048 83.0529C46.3553 84.5979 47.9353 85.8439 49.7292 86.6999C51.5232 87.5558 53.4857 88 55.4734 88C57.4611 88 59.4237 87.5558 61.2176 86.6999C63.0116 85.8439 64.5916 84.5979 65.8421 83.0529C67.7203 81.1746 68.6403 80.3313 70.8251 80.3313C73.01 80.3313 73.8917 81.1746 75.7699 83.0529C77.042 84.5778 78.6292 85.8093 80.4223 86.6629C82.2154 87.5164 84.172 87.9718 86.1577 87.9976V80.3313C84.0111 80.3313 83.0912 79.4881 81.213 77.6098L80.983 77.3798L87.6526 57.3325H55.4926ZM47.8263 57.3325H25.9008C29.4728 43.8454 37.1318 31.7946 47.8263 22.8342V57.3325Z" fill="#0E204D"/>
</svg>
