<svg width="96" height="96" viewBox="0 0 96 96" fill="none" xmlns="http://www.w3.org/2000/svg">
<path d="M72.9 31.9875L66.95 26.0375C65.6332 24.7323 63.8541 24 62 24H33.65C31.8 24 30.0125 24.7375 28.7 26.0375L22.75 31.9875H8V63.95H16C18.2 63.95 19.975 62.175 19.9875 59.9875H21.125L31.7 69.5375C35.5625 72.675 40.925 72.75 44.9 70.0125C46.4625 71.3625 48.15 72 50.0375 72C52.3125 72 54.45 71.075 56.1375 69C58.9 70.0875 62.1625 69.325 64.1375 66.9L67.4125 62.8625C68.1125 62 68.55 61.0125 68.775 59.9875H76.0125C76.025 62.175 77.8125 63.95 80 63.95H88V31.9875H72.9ZM14 59.95C12.9 59.95 12 59.05 12 57.95C12 56.85 12.9 55.95 14 55.95C15.1 55.95 16 56.85 16 57.95C16 59.0625 15.1 59.95 14 59.95ZM62.75 59.0875L59.4875 63.1125C59.1375 63.5375 58.5125 63.6125 58.075 63.2625L55.0875 60.8375L51.3375 65.4C50.5875 66.3125 49.4625 66 49.0875 65.7L44.4875 61.7625L42.5375 64.1625C40.8 66.3 37.6375 66.625 35.625 64.9875L23.4625 53.9875H20V37.975H25.2375L32.95 30.275C33.2 30.175 33.4125 30.0875 33.6625 29.9875H40.75L35.9125 34.425C32.2375 37.7875 32.025 43.4625 35.3625 47.0875C37.2125 49.1125 43.0125 52.2375 48.05 47.6375L49.075 46.7L62.6 57.675C63.025 58.025 63.0875 58.6625 62.75 59.0875ZM76 53.9875H67.35C67.0625 53.6375 66.7375 53.3125 66.3875 53.025L53.55 42.6L55.1125 41.175C55.925 40.425 55.9875 39.1625 55.2375 38.35L53.875 36.8875C53.125 36.075 51.8625 36.025 51.05 36.7625L44.15 43.0875C42.9625 44.175 40.9375 44.2625 39.825 43.0875C38.6625 41.85 38.7625 39.95 39.975 38.85L48.175 31.3375C49.1 30.4875 50.3 30.025 51.55 30.025L62.0125 30C62.275 30 62.525 30.1 62.7 30.2875L70.4125 37.9875H76V53.9875ZM82 59.95C80.9 59.95 80 59.05 80 57.95C80 56.85 80.9 55.95 82 55.95C83.1 55.95 84 56.85 84 57.95C84 59.0625 83.1 59.95 82 59.95Z" fill="#0E204D"/>
</svg>
