<svg width="96" height="96" viewBox="0 0 96 96" fill="none" xmlns="http://www.w3.org/2000/svg">
<path d="M66.4375 56.75C69.5625 51.8333 71.3958 46 71.3958 39.7292C71.3958 22.2083 57.2083 8 39.7083 8C22.1875 8 8 22.2083 8 39.7292C8 57.25 22.1875 71.4583 39.6875 71.4583C46.0417 71.4583 51.9583 69.5833 56.9167 66.375L58.3542 65.375L80.9792 88L88 80.8542L65.3958 58.2292L66.4375 56.75ZM57.4583 22C62.1875 26.7292 64.7917 33.0208 64.7917 39.7083C64.7917 46.3958 62.1875 52.6875 57.4583 57.4167C52.7292 62.1458 46.4375 64.75 39.75 64.75C33.0625 64.75 26.7708 62.1458 22.0417 57.4167C17.3125 52.6875 14.7083 46.3958 14.7083 39.7083C14.7083 33.0208 17.3125 26.7292 22.0417 22C26.7708 17.2708 33.0625 14.6667 39.75 14.6667C46.4375 14.6667 52.7292 17.2708 57.4583 22Z" fill="#0E204D"/>
</svg>
