<svg width="96" height="96" viewBox="0 0 96 96" fill="none" xmlns="http://www.w3.org/2000/svg">
<path fill-rule="evenodd" clip-rule="evenodd" d="M46.3738 8.3839C47.3975 7.87203 48.6025 7.87203 49.6262 8.3839L67.7752 17.4584C67.7989 17.4699 67.8225 17.4817 67.8459 17.4937L85.9899 26.5657C87.2218 27.1817 88 28.4408 88 29.8182V66.1818C88 67.5592 87.2218 68.8183 85.9899 69.4343L49.6262 87.6161C48.6025 88.128 47.3975 88.128 46.3738 87.6161L10.0101 69.4343C8.77819 68.8183 8 67.5592 8 66.1818V29.8182C8 28.4408 8.77819 27.1817 10.0101 26.5657L46.3738 8.3839ZM58.0507 20.7273L48 15.7019L19.7675 29.8182L29.8182 34.8435L58.0507 20.7273ZM37.9493 38.9091L66.1818 24.7929L76.2325 29.8182L48 43.9344L37.9493 38.9091ZM28.1541 42.1426C28.1776 42.1547 28.2011 42.1665 28.2248 42.178L44.3636 50.2474V78.4799L15.2727 63.9344V35.7019L28.1541 42.1426ZM51.6364 78.4799L80.7273 63.9344V35.7019L51.6364 50.2474V78.4799Z" fill="#0E204D"/>
</svg>
