<svg width="96" height="96" viewBox="0 0 96 96" fill="none" xmlns="http://www.w3.org/2000/svg">
<path d="M67.5569 45.0784C67.2106 44.9123 66.8608 44.7535 66.5078 44.6021C65.8904 33.2242 59.6733 26.7104 49.2341 26.6438C43.211 26.6037 37.8195 29.0597 34.4592 34.1585L40.2003 38.097C42.5881 34.4744 46.3354 33.7019 49.0952 33.7019C49.127 33.7019 49.1591 33.7019 49.1907 33.7024C52.6278 33.7242 55.2216 34.7236 56.9003 36.6724C58.122 38.0914 58.9392 40.0522 59.3437 42.5266C56.2962 42.0086 53.0004 41.8495 49.4769 42.0513C39.5519 42.6231 33.1712 48.4116 33.5998 56.455C33.8173 60.535 35.8498 64.045 39.3228 66.3379C42.2593 68.2761 46.0412 69.2241 49.9718 69.0096C55.1625 68.7251 59.2344 66.7446 62.0753 63.1232C64.2329 60.3734 65.5974 56.8096 66.1999 52.3193C68.6736 53.812 70.5071 55.7767 71.5195 58.1383C73.2412 62.1529 73.3415 68.7501 67.9586 74.1283C63.2424 78.8399 57.5733 80.8782 49.0056 80.9412C39.5017 80.8708 32.314 77.823 27.6408 71.882C23.2647 66.3191 21.0031 58.284 20.9188 47.9999C21.0031 37.7158 23.2647 29.6806 27.6408 24.1178C32.314 18.177 39.5016 15.129 49.0054 15.0587C58.5782 15.1298 65.8912 18.1923 70.7433 24.1618C73.1225 27.0889 74.9162 30.7704 76.0986 35.0627L82.8266 33.2676C81.3933 27.9843 79.138 23.4314 76.0686 19.656C69.8484 12.0029 60.7509 8.08118 49.0289 8H48.982C37.2839 8.08103 28.2883 12.0174 22.245 19.6996C16.8674 26.536 14.0935 36.0482 14.0003 47.9718L14 47.9999L14.0003 48.0281C14.0935 59.9517 16.8674 69.464 22.245 76.3004C28.2883 83.9824 37.2839 87.9191 48.982 88H49.0289C59.4291 87.9277 66.7599 85.205 72.7992 79.1711C80.7003 71.2774 80.4626 61.383 77.8582 55.3089C75.9899 50.9529 72.4278 47.4151 67.5569 45.0784ZM49.6002 61.9613C45.2502 62.2062 40.7309 60.2536 40.5082 56.0716C40.343 52.9708 42.715 49.5108 49.867 49.0986C50.6862 49.0514 51.4899 49.0283 52.2794 49.0283C54.8775 49.0283 57.3078 49.2806 59.5175 49.7638C58.6934 60.0562 53.8591 61.7276 49.6002 61.9613Z" fill="#0E204D"/>
</svg>
